<?xml version="1.0" encoding="UTF-8"?>
<svg version="1.1" xmlns="http://www.w3.org/2000/svg" width="407" height="386">
<path d="M0 0 C134.31 0 268.62 0 407 0 C407 127.38 407 254.76 407 386 C272.69 386 138.38 386 0 386 C0 258.62 0 131.24 0 0 Z " fill="#A6C3D3" transform="translate(0,0)"/>
<path d="M0 0 C0.804375 0.928125 1.60875 1.85625 2.4375 2.8125 C3.37916016 3.78703125 3.37916016 3.78703125 4.33984375 4.78125 C16.83022336 17.99267573 18.89681924 33.00568725 18.84155273 50.52636719 C18.84726742 52.17703714 18.85423589 53.82770314 18.86235046 55.47836304 C18.88017925 59.92905579 18.87913257 64.37955027 18.87340808 68.83026791 C18.87030016 72.5623391 18.87642665 76.29437308 18.88244683 80.02643895 C18.89645776 88.84122565 18.89496044 97.65591536 18.88354492 106.47070312 C18.87207705 115.52526055 18.88612485 124.57952131 18.9129414 133.63403964 C18.93519079 141.44255603 18.94171478 149.25097993 18.93586498 157.05952573 C18.932515 161.70785458 18.93477826 166.35599354 18.95211601 171.00429535 C18.96773044 175.38103129 18.96347136 179.75733261 18.94481087 184.13405228 C18.94116416 185.72699788 18.94411678 187.31997674 18.95469666 188.91289139 C19.03914359 202.69526081 17.26298519 215.57369896 10.4375 227.8125 C10.06893228 229.13652671 9.72666692 230.46889612 9.4375 231.8125 C8.7775 231.8125 8.1175 231.8125 7.4375 231.8125 C6.7775 233.4625 6.1175 235.1125 5.4375 236.8125 C4.7775 236.8125 4.1175 236.8125 3.4375 236.8125 C3.4375 237.4725 3.4375 238.1325 3.4375 238.8125 C1.42578125 240.21484375 1.42578125 240.21484375 -1.25 241.75 C-2.55517578 242.50603516 -2.55517578 242.50603516 -3.88671875 243.27734375 C-5.21123047 244.03724609 -5.21123047 244.03724609 -6.5625 244.8125 C-7.32304687 245.328125 -8.08359375 245.84375 -8.8671875 246.375 C-12.471219 248.29715013 -16.0159243 249.06754526 -20 249.875 C-21.22843628 250.13095947 -21.22843628 250.13095947 -22.48168945 250.39208984 C-29.941674 251.85813288 -37.42056091 252.60090143 -44.99975586 253.12915039 C-55.30794992 253.76200045 -55.30794992 253.76200045 -64.5625 257.8125 C-65.23971209 259.4749097 -65.90473351 261.14230077 -66.5625 262.8125 C-67.44917907 264.40295122 -68.37354092 265.97279115 -69.328125 267.5234375 C-69.88193848 268.42819824 -70.43575195 269.33295898 -71.00634766 270.26513672 C-71.60237793 271.2295166 -72.1984082 272.19389648 -72.8125 273.1875 C-74.07609543 275.23922957 -75.33909807 277.29132432 -76.6015625 279.34375 C-77.25286133 280.40207031 -77.90416016 281.46039063 -78.57519531 282.55078125 C-80.56661817 285.81925906 -82.51881763 289.1082736 -84.4609375 292.40625 C-85.08581055 293.45893066 -85.71068359 294.51161133 -86.35449219 295.59619141 C-87.56002542 297.62928434 -88.7562814 299.66791201 -89.94238281 301.71240234 C-90.48991211 302.62973145 -91.03744141 303.54706055 -91.6015625 304.4921875 C-92.07803223 305.30413574 -92.55450195 306.11608398 -93.04541016 306.95263672 C-94.80573478 309.11069159 -95.84474527 309.46811946 -98.5625 309.8125 C-102.38461021 305.46273564 -105.3768315 301.01703188 -108.25 296 C-110.65364774 291.17877335 -110.65364774 291.17877335 -114.5625 287.8125 C-115.31986259 286.10020196 -116.07246812 284.38531545 -116.78125 282.65234375 C-118.25047344 279.19232255 -119.92399147 276.43165978 -122.625 273.8125 C-124.5625 271.8125 -124.5625 271.8125 -125.5 269.3125 C-126.85456794 266.12528131 -128.84867929 264.8835737 -131.5625 262.8125 C-131.5625 262.1525 -131.5625 261.4925 -131.5625 260.8125 C-143.66998213 260.63770484 -143.66998213 260.63770484 -155.75 261.3125 C-187.72640198 263.99072656 -187.72640198 263.99072656 -199.5625 256.8125 C-204.60100643 252.48364236 -208.35412803 248.12213419 -210.5625 241.8125 C-211.2225 241.8125 -211.8825 241.8125 -212.5625 241.8125 C-218.63006773 230.68862583 -218.86169536 220.2520031 -218.85302734 207.88842773 C-218.85901952 206.17908944 -218.86582665 204.46975385 -218.87338257 202.76042175 C-218.89098401 198.13604634 -218.8957356 193.51174504 -218.89701414 188.88733935 C-218.89844013 185.99074782 -218.90271829 183.09417487 -218.90800858 180.19758797 C-218.92649265 170.07075947 -218.93468161 159.94398348 -218.93310547 149.81713867 C-218.93190596 140.41331673 -218.95297505 131.00972501 -218.9845928 121.60596126 C-219.01085011 113.50452433 -219.02146875 105.40316211 -219.02019465 97.30168301 C-219.0196876 92.47556487 -219.02522697 87.6496513 -219.04655075 82.82357597 C-219.06609208 78.27700239 -219.06595046 73.7308251 -219.05151749 69.18423653 C-219.04944751 67.52839699 -219.05402024 65.87253159 -219.0662384 64.21673584 C-219.14302808 53.07635928 -217.61184641 43.53925497 -214.5625 32.8125 C-214.20912274 31.14996777 -213.86673872 29.48472238 -213.5625 27.8125 C-215.75217061 31.09700591 -216.27357349 33.40398325 -217.0625 37.25 C-217.2996875 38.38308594 -217.536875 39.51617187 -217.78125 40.68359375 C-217.90258301 41.33150879 -218.02391602 41.97942383 -218.14892578 42.64697266 C-218.4373871 44.15739292 -218.75590557 45.66224813 -219.09716797 47.16162109 C-221.27841606 57.85147555 -220.77971638 68.70880592 -220.6875 79.5625 C-220.67745006 81.62759983 -220.66832778 83.69270439 -220.66015625 85.7578125 C-220.63830247 90.7761602 -220.60388347 95.79427691 -220.5625 100.8125 C-222.0475 100.3175 -222.0475 100.3175 -223.5625 99.8125 C-223.2325 102.4525 -222.9025 105.0925 -222.5625 107.8125 C-222.2325 107.8125 -221.9025 107.8125 -221.5625 107.8125 C-221.56618717 108.39080755 -221.56987434 108.9691151 -221.57367325 109.56494713 C-221.66221988 123.67178597 -221.72830434 137.77858285 -221.76974869 151.8856411 C-221.79032642 158.70787954 -221.81835449 165.52993185 -221.86425781 172.35205078 C-221.90856207 178.93968905 -221.9316595 185.52718524 -221.94200897 192.11497879 C-221.94938152 194.62430483 -221.96377831 197.13362069 -221.98542023 199.64286423 C-222.01459185 203.16627317 -222.0184501 206.68889145 -222.01660156 210.21240234 C-222.03098267 211.24243378 -222.04536377 212.27246521 -222.06018066 213.33370972 C-222.02065526 220.32753375 -220.43468229 225.48829716 -217.5625 231.8125 C-216.59246663 234.58281771 -215.72639327 237.37872348 -214.875 240.1875 C-214.66294922 240.87199219 -214.45089844 241.55648438 -214.23242188 242.26171875 C-213.41987268 244.90186283 -212.62622475 247.51735378 -212.04296875 250.21875 C-211.69391405 252.0426566 -211.69391405 252.0426566 -209.5625 252.9375 C-208.5725 253.370625 -208.5725 253.370625 -207.5625 253.8125 C-207.2325 254.4725 -206.9025 255.1325 -206.5625 255.8125 C-208.5425 255.4825 -210.5225 255.1525 -212.5625 254.8125 C-212.5625 254.1525 -212.5625 253.4925 -212.5625 252.8125 C-213.43261719 252.72742188 -214.30273438 252.64234375 -215.19921875 252.5546875 C-219.06483631 251.70164762 -221.21699094 250.29628652 -224.375 247.9375 C-225.33019531 247.23882812 -226.28539062 246.54015625 -227.26953125 245.8203125 C-229.5625 243.8125 -229.5625 243.8125 -230.5625 240.8125 C-231.5215625 240.379375 -231.5215625 240.379375 -232.5 239.9375 C-235.27930854 238.42151352 -235.63365981 236.75382727 -236.5625 233.8125 C-237.2225 233.8125 -237.8825 233.8125 -238.5625 233.8125 C-244.28124288 221.7944312 -246.72039753 210.7849156 -246.69189453 197.53442383 C-246.69364685 196.52545547 -246.69539917 195.51648712 -246.69720459 194.47694397 C-246.70158892 191.15778866 -246.69869783 187.83868706 -246.6953125 184.51953125 C-246.69598636 182.20741262 -246.69695708 179.89529405 -246.69821167 177.58317566 C-246.69968387 172.7456291 -246.69754882 167.90810104 -246.69287109 163.07055664 C-246.68716452 156.8663858 -246.69046171 150.66225814 -246.69644356 144.45808887 C-246.70005387 139.68751194 -246.69890858 134.91694527 -246.69631577 130.14636803 C-246.6956483 127.85819176 -246.69646865 125.57001456 -246.69879532 123.28183937 C-246.70133055 120.08866522 -246.69746929 116.89556148 -246.69189453 113.70239258 C-246.69391876 112.75529419 -246.69594299 111.8081958 -246.69802856 110.83239746 C-246.69520874 109.9619429 -246.69238892 109.09148834 -246.68948364 108.19465637 C-246.68910662 107.44050351 -246.68872959 106.68635065 -246.68834114 105.90934467 C-246.5625 103.8125 -246.5625 103.8125 -245.99206352 101.60111523 C-245.85030756 101.0108722 -245.7085516 100.42062918 -245.5625 99.8125 C-245.8925 99.4825 -246.2225 99.1525 -246.5625 98.8125 C-246.66978676 95.72011701 -246.70306488 92.65542725 -246.6875 89.5625 C-246.68339111 88.57411133 -246.67928223 87.58572266 -246.67504883 86.56738281 C-246.65003961 82.98219061 -246.60819974 79.39748923 -246.5625 75.8125 C-246.55389954 75.08192383 -246.54529907 74.35134766 -246.53643799 73.59863281 C-246.47763693 68.73944627 -246.39818182 63.88109576 -246.29803467 59.02258301 C-246.2662992 57.39725933 -246.23907466 55.7718406 -246.21661377 54.1463623 C-245.88607494 31.39242007 -245.88607494 31.39242007 -241.01464844 26.14526367 C-240.53543945 25.70545166 -240.05623047 25.26563965 -239.5625 24.8125 C-238.64472936 22.91641515 -238.64472936 22.91641515 -238 20.875 C-237.01446061 18.06723935 -235.97060465 15.44096201 -234.5625 12.8125 C-234.27503906 12.18601562 -233.98757812 11.55953125 -233.69140625 10.9140625 C-228.715834 1.65157852 -217.52157712 -4.1957467 -207.89453125 -7.3828125 C-192.29250711 -11.15071047 -175.36799708 -10.63727658 -159.38891602 -11.36767578 C-145.87331607 -11.99103391 -132.37561684 -12.79952901 -118.875 -13.6875 C-104.00374159 -14.66142169 -89.13221128 -15.58414449 -74.25 -16.375 C-73.46339996 -16.4177002 -72.67679993 -16.46040039 -71.86636353 -16.50439453 C-48.76032053 -17.75275789 -18.67309607 -15.94044787 0 0 Z " fill="#E8E3DF" transform="translate(289.5625,22.1875)"/>
<path d="M0 0 C3.07891805 2.19434603 5.97876048 4.49324134 8.85546875 6.9453125 C9.57089844 7.54988281 10.28632813 8.15445313 11.0234375 8.77734375 C19.11062036 16.69209201 20.17914771 28.67726045 20.41796875 39.4453125 C20.45845337 40.55688721 20.45845337 40.55688721 20.49975586 41.69091797 C20.4639235 46.72451174 19.24138388 49.56012321 16.04541016 53.44433594 C14.46654949 55.43589018 13.7133123 57.56974576 12.85546875 59.9453125 C12.19546875 60.9353125 11.53546875 61.9253125 10.85546875 62.9453125 C10.29859375 62.7184375 9.74171875 62.4915625 9.16796875 62.2578125 C5.88621653 61.81433247 4.60217146 63.1567619 1.85546875 64.9453125 C0.24671875 65.5021875 0.24671875 65.5021875 -1.39453125 66.0703125 C-5.80468992 67.88794839 -8.63149301 71.19611189 -11.87109375 74.6015625 C-13.97814594 76.77378125 -16.1500823 78.7399803 -18.45703125 80.6953125 C-24.02015061 85.06299805 -24.02015061 85.06299805 -26.30859375 91.40625 C-26.28311157 93.18490632 -26.21223158 94.96365767 -26.08984375 96.73828125 C-26.14453125 98.9453125 -26.14453125 98.9453125 -28.14453125 100.9453125 C-30.21547436 106.7581311 -30.21547436 106.7581311 -28.83203125 112.6328125 C-28.27515625 113.7259375 -27.71828125 114.8190625 -27.14453125 115.9453125 C-26.81453125 117.5953125 -26.48453125 119.2453125 -26.14453125 120.9453125 C-34.39453125 120.6153125 -42.64453125 120.2853125 -51.14453125 119.9453125 C-51.14453125 111.3653125 -51.14453125 102.7853125 -51.14453125 93.9453125 C-50.48453125 93.6153125 -49.82453125 93.2853125 -49.14453125 92.9453125 C-48.40933603 90.96947535 -47.75380643 88.96353652 -47.14453125 86.9453125 C-46.53525607 84.92708848 -45.87972647 82.92114965 -45.14453125 80.9453125 C-44.48453125 80.6153125 -43.82453125 80.2853125 -43.14453125 79.9453125 C-42.75265625 79.0790625 -42.36078125 78.2128125 -41.95703125 77.3203125 C-38.67909112 71.21656191 -33.8466249 67.41845311 -28.31103516 63.34521484 C-21.41213312 58.25822438 -14.71829111 52.83624449 -13.14453125 43.9453125 C-12.68588959 38.12582656 -12.28025608 32.80682826 -14.76953125 27.4453125 C-21.00700068 20.87955521 -25.06623401 18.82021863 -34.20703125 18.5703125 C-36.04974609 18.49683594 -36.04974609 18.49683594 -37.9296875 18.421875 C-41.31304673 18.58589388 -41.31304673 18.58589388 -42.890625 21.34375 C-43.30441406 22.20226562 -43.71820313 23.06078125 -44.14453125 23.9453125 C-45.13453125 24.6053125 -46.12453125 25.2653125 -47.14453125 25.9453125 C-50.54731695 34.48136038 -50.785368 43.87953669 -51.14453125 52.9453125 C-52.12292969 52.74615234 -52.12292969 52.74615234 -53.12109375 52.54296875 C-53.99507812 52.36636719 -54.8690625 52.18976563 -55.76953125 52.0078125 C-56.62804687 51.83378906 -57.4865625 51.65976563 -58.37109375 51.48046875 C-64.27840393 50.34060749 -70.01919964 49.69299913 -76.01953125 49.3828125 C-77.19515625 49.31803711 -77.19515625 49.31803711 -78.39453125 49.25195312 C-80.31103774 49.14677899 -82.22776458 49.04563325 -84.14453125 48.9453125 C-85.34462101 35.63765053 -80.21663963 25.22741808 -72.14453125 14.9453125 C-71.72300781 14.37167969 -71.30148438 13.79804687 -70.8671875 13.20703125 C-64.79458791 5.29424997 -56.06536896 0.93503389 -47.14453125 -3.0546875 C-45.79101562 -3.68117187 -45.79101562 -3.68117187 -44.41015625 -4.3203125 C-29.59030515 -10.26499853 -13.20369904 -8.62751018 0 0 Z M5.85546875 62.9453125 C7.85546875 63.9453125 7.85546875 63.9453125 7.85546875 63.9453125 Z " fill="#647B8F" transform="translate(223.14453125,60.0546875)"/>
<path d="M0 0 C2.66586509 2.78972165 5 6.03812242 5 10 C7.64 10.33 10.28 10.66 13 11 C13.495 12.485 13.495 12.485 14 14 C15.98 14.33 17.96 14.66 20 15 C19.505 16.485 19.505 16.485 19 18 C17.73736328 17.51853516 17.73736328 17.51853516 16.44921875 17.02734375 C12.76845525 15.9310348 9.64675114 15.6323631 5.8125 15.5625 C4.60207031 15.52253906 3.39164063 15.48257813 2.14453125 15.44140625 C-1.17455862 15.65519702 -1.17455862 15.65519702 -2.73828125 18.40234375 C-3.36283203 19.68818359 -3.36283203 19.68818359 -4 21 C-4.99 21.66 -5.98 22.32 -7 23 C-10.4027857 31.53604788 -10.64083675 40.93422419 -11 50 C-11.97839844 49.80083984 -11.97839844 49.80083984 -12.9765625 49.59765625 C-13.85054687 49.42105469 -14.72453125 49.24445313 -15.625 49.0625 C-16.48351562 48.88847656 -17.34203125 48.71445313 -18.2265625 48.53515625 C-24.13387268 47.39529499 -29.87466839 46.74768663 -35.875 46.4375 C-37.050625 46.37272461 -37.050625 46.37272461 -38.25 46.30664062 C-40.16650649 46.20146649 -42.08323333 46.10032075 -44 46 C-45.20008976 32.69233803 -40.07210838 22.28210558 -32 12 C-31.57847656 11.42636719 -31.15695313 10.85273437 -30.72265625 10.26171875 C-26.95738182 5.35545207 -21.90169486 0.96723162 -16 -1 C-15.01 -1 -14.02 -1 -13 -1 C-8.4264362 -2.52452127 -4.43662514 -1.81562526 0 0 Z " fill="#7B95A7" transform="translate(183,63)"/>
<path d="M0 0 C5.09519354 6.14937152 8.46788373 12.40365119 11 20 C12.65 20.33 14.3 20.66 16 21 C16 21.66 16 22.32 16 23 C15.01326294 23.029729 15.01326294 23.029729 14.0065918 23.06005859 C-2.27923066 23.55497146 -2.27923066 23.55497146 -18.5 25 C-25.64959235 25.85318981 -32.74141669 26.22276686 -39.9375 26.4375 C-50.45185695 26.75680979 -60.81921248 27.70709894 -71.25952148 28.98413086 C-77.69742567 29.74907252 -83.93886837 30.12142268 -90.42358398 29.95288086 C-93.93032826 30.01701444 -96.71829685 30.8066534 -100 32 C-100.33 31.67 -100.66 31.34 -101 31 C-102.35748932 30.92545363 -103.71874919 30.91671973 -105.078125 30.9375 C-106.32529297 30.94910156 -106.32529297 30.94910156 -107.59765625 30.9609375 C-109.35026382 30.9867491 -111.10286808 31.01278663 -112.85546875 31.0390625 C-117.07692376 31.07808982 -120.86459295 30.94590596 -125 30 C-127.72502965 30.37722015 -127.72502965 30.37722015 -130 31 C-130.99 29.35 -131.98 27.7 -133 26 C-131.68 25.34 -130.36 24.68 -129 24 C-130.98 23.67 -132.96 23.34 -135 23 C-135 22.67 -135 22.34 -135 22 C-133.35425434 21.97311849 -131.70838587 21.95365877 -130.0625 21.9375 C-129.14597656 21.92589844 -128.22945312 21.91429687 -127.28515625 21.90234375 C-125 22 -125 22 -124 23 C-122.16636503 23.04477692 -122.16636503 23.04477692 -119.9921875 22.87890625 C-119.16976562 22.83056641 -118.34734375 22.78222656 -117.5 22.73242188 C-116.63375 22.67634766 -115.7675 22.62027344 -114.875 22.5625 C-109.23842701 22.21344617 -103.64843975 21.93111659 -98 22 C-97.67 21.34 -97.34 20.68 -97 20 C-91.30958325 17.88033876 -85.84032067 17.61908754 -79.8125 17.4375 C-78.04804836 17.37736278 -76.2837128 17.31369199 -74.51953125 17.24609375 C-73.74714111 17.22216553 -72.97475098 17.1982373 -72.17895508 17.17358398 C-70.03070995 17.06899912 -70.03070995 17.06899912 -68.1335144 16.49822998 C-65.91058887 15.97912022 -63.9649559 15.86649324 -61.68481445 15.85473633 C-60.8390535 15.84835648 -59.99329254 15.84197662 -59.12190247 15.83540344 C-58.21155746 15.83429062 -57.30121246 15.8331778 -56.36328125 15.83203125 C-55.41043747 15.82870285 -54.45759369 15.82537445 -53.47587585 15.82194519 C-51.45259075 15.81688128 -49.42929729 15.8145367 -47.40600586 15.81469727 C-44.36882892 15.81254001 -41.33203313 15.7944608 -38.29492188 15.77539062 C-26.71188016 15.74299698 -15.46111386 16.29651655 -4 18 C-4.17402344 17.38640625 -4.34804687 16.7728125 -4.52734375 16.140625 C-5.06005393 13.7280202 -4.74723504 12.32473122 -4 10 C-2.02 10.66 -0.04 11.32 2 12 C1.67 10.7625 1.34 9.525 1 8.25 C0.20108841 5.25408155 0 3.19892281 0 0 Z " fill="#8EB2C5" transform="translate(173,313)"/>
<path d="M0 0 C3.94772528 2.08559071 6.67248756 4.19971132 9 8 C9.58203125 11.0234375 9.58203125 11.0234375 9.8125 14.375 C9.90144531 15.47585937 9.99039063 16.57671875 10.08203125 17.7109375 C9.99534932 21.18647022 9.26065143 23.77779442 8 27 C7.34 27 6.68 27 6 27 C5.66501699 29.33165034 5.66501699 29.33165034 6 32 C6.680625 32.66 7.36125 33.32 8.0625 34 C8.701875 34.66 9.34125 35.32 10 36 C9.83849795 39.39154295 9.41703243 40.58296757 7 43 C1.9660974 43.46610209 -0.13571433 43.06869745 -4 40 C-5.46852626 39.50864055 -6.949555 39.0539792 -8.4375 38.625 C-13.72520703 36.95793965 -16.45554588 34.22627411 -19.6015625 29.69140625 C-22.43623938 24.23584096 -21.88159475 17.95497501 -20.15625 12.171875 C-17.85223181 6.97226637 -15.18172271 3.45951333 -10.11328125 0.77734375 C-6.38920581 -0.59251025 -3.97085439 -0.57641435 0 0 Z " fill="#687F94" transform="translate(219,215)"/>
<path d="M0 0 C3.58964923 5.38447385 4.33843537 10.37807923 4.25 16.75 C4.24323242 17.45302246 4.23646484 18.15604492 4.22949219 18.88037109 C4.02955759 29.00961591 2.7117687 35.906196 -4.3125 43.5 C-13.14285714 51.71428571 -13.14285714 51.71428571 -17 53 C-18.49295255 54.72738084 -18.49295255 54.72738084 -19.875 56.8125 C-22.26616604 60.12563305 -24.56161809 62.70774539 -28 65 C-28.66 65 -29.32 65 -30 65 C-30.144375 65.61875 -30.28875 66.2375 -30.4375 66.875 C-31 69 -31 69 -32 71 C-33.02225381 78.58422125 -33.32381121 86.1575635 -33.60546875 93.79882812 C-33.64285156 94.69923828 -33.68023437 95.59964844 -33.71875 96.52734375 C-33.74904297 97.33937256 -33.77933594 98.15140137 -33.81054688 98.98803711 C-34 101 -34 101 -35 103 C-35.76812012 102.7690564 -35.76812012 102.7690564 -36.55175781 102.53344727 C-39.75760392 101.83492575 -42.89679257 101.66618078 -46.171875 101.46484375 C-46.8542926 101.42186661 -47.53671021 101.37888947 -48.23980713 101.33460999 C-50.4096716 101.19875655 -52.57981109 101.06805756 -54.75 100.9375 C-56.22528156 100.84604355 -57.70054229 100.75425044 -59.17578125 100.66210938 C-62.78360152 100.43687425 -66.39174836 100.2186176 -70 100 C-70 92.74 -70 85.48 -70 78 C-69.67 78 -69.34 78 -69 78 C-66.84615385 94.69230769 -66.84615385 94.69230769 -69 99 C-61.08 99 -53.16 99 -45 99 C-46.485 94.05 -46.485 94.05 -48 89 C-48 85.04512963 -47.30199484 82.67622072 -46 79 C-45.09800104 76.20380323 -45.02775728 74.75943692 -45.375 71.75 C-44.81124953 66.11249526 -41.97064605 63.85404284 -38 60 C-37.44199707 59.44763672 -36.88399414 58.89527344 -36.30908203 58.32617188 C-34.38726991 56.43098878 -32.4474212 54.55634399 -30.5 52.6875 C-29.5572522 51.77085571 -29.5572522 51.77085571 -28.59545898 50.83569336 C-22.54833442 45.15987656 -17.29554411 42.72019477 -8.91796875 42.50390625 C-6.83073283 42.18617962 -6.83073283 42.18617962 -5.828125 40.18359375 C-5.41820312 39.10271484 -5.41820312 39.10271484 -5 38 C-2.22125966 31.23437134 -2.22125966 31.23437134 -0.41796875 29.32421875 C1.75113034 25.7688084 1.3600032 22.39178523 1.25 18.3125 C1.23904297 17.50828613 1.22808594 16.70407227 1.21679688 15.87548828 C1.11723652 10.53277647 0.78371238 5.29005853 0 0 Z M-11 40 C-10.67 40.66 -10.34 41.32 -10 42 C-10.66 41.67 -11.32 41.34 -12 41 C-11.67 40.67 -11.34 40.34 -11 40 Z " fill="#C0B4AB" transform="translate(241,81)"/>
<path d="M0 0 C1.37418053 3.71028743 0.47433923 5.4396761 -1 9 C-4.12442777 19.13598937 -4.43036836 28.97188906 -4.38818359 39.45751953 C-4.39225793 41.17556083 -4.3976046 42.8935995 -4.40411377 44.6116333 C-4.41768873 49.23962009 -4.41253023 53.8674043 -4.40297651 58.49539423 C-4.39533109 63.35890365 -4.40243876 68.22239681 -4.40713501 73.08590698 C-4.41257739 81.24789515 -4.40543985 89.40980161 -4.39111328 97.57177734 C-4.37477876 106.98597729 -4.38008725 116.39998237 -4.3965925 125.81417763 C-4.41023766 133.92411557 -4.41211257 142.03399509 -4.40427649 150.14394081 C-4.39961801 154.97593812 -4.39892482 159.80784404 -4.40888596 164.63983536 C-4.41759801 169.18230752 -4.41145686 173.72453001 -4.39420319 178.2669754 C-4.39026134 179.92652091 -4.39133255 181.58608771 -4.39799118 183.24562454 C-4.43072565 192.23801378 -4.01260687 200.41490101 -1 209 C-0.608125 210.216875 -0.21625 211.43375 0.1875 212.6875 C0.455625 213.450625 0.72375 214.21375 1 215 C1.66 215 2.32 215 3 215 C4.33203125 216.5390625 4.33203125 216.5390625 5.8125 218.625 C6.62654297 219.72134766 6.62654297 219.72134766 7.45703125 220.83984375 C8.69987948 222.57983128 9.86352489 224.3762428 11 226.1875 C14.9130278 230.92977873 22.36530181 232.26251935 28 234 C28.99 234.33 29.98 234.66 31 235 C33.13661258 235.15070797 35.27712124 235.2485966 37.41796875 235.31640625 C38.67158203 235.35830078 39.92519531 235.40019531 41.21679688 235.44335938 C42.52712891 235.48267578 43.83746094 235.52199219 45.1875 235.5625 C46.52279978 235.60570992 47.85808652 235.649325 49.19335938 235.69335938 C52.46213297 235.79956502 55.73098333 235.90160997 59 236 C59 236.33 59 236.66 59 237 C43.26960516 239.79346167 25.49093564 240.22396791 11 233 C9.54445428 232.38914803 8.08664091 231.78362022 6.625 231.1875 C5.75875 230.795625 4.8925 230.40375 4 230 C4.99 229.01 4.99 229.01 6 228 C5.401875 227.67 4.80375 227.34 4.1875 227 C-1.50847972 221.79224711 -3.21380337 210.39230785 -5.5703125 203.16210938 C-6.01890625 201.79989258 -6.01890625 201.79989258 -6.4765625 200.41015625 C-6.74549316 199.58652588 -7.01442383 198.76289551 -7.29150391 197.91430664 C-7.8412525 196.01951032 -7.8412525 196.01951032 -9 195 C-9.0956161 193.54518505 -9.12188351 192.08574514 -9.12025452 190.62779236 C-9.12231651 189.21215248 -9.12231651 189.21215248 -9.12442017 187.76791382 C-9.12082489 186.72422638 -9.11722961 185.68053894 -9.11352539 184.60522461 C-9.11367142 183.51267868 -9.11381744 182.42013275 -9.1139679 181.29447937 C-9.11326822 177.66374767 -9.10547329 174.03306654 -9.09765625 170.40234375 C-9.09579226 167.89270557 -9.09436827 165.38306702 -9.09336853 162.87342834 C-9.08993348 156.93065407 -9.08204273 150.98789616 -9.07201904 145.04513031 C-9.05976253 137.61798075 -9.05437792 130.19082895 -9.04882812 122.76367188 C-9.03808811 109.50910527 -9.02120082 96.25455379 -9 83 C-9.33 83 -9.66 83 -10 83 C-10 79.7 -10 76.4 -10 73 C-9.34 73 -8.68 73 -8 73 C-8.01047363 71.76024414 -8.02094727 70.52048828 -8.03173828 69.24316406 C-8.06826319 64.59133861 -8.09101736 59.93952552 -8.10986328 55.28759766 C-8.11984748 53.28399516 -8.13343955 51.28040695 -8.15087891 49.27685547 C-8.33107574 28.02422906 -8.33107574 28.02422906 -6 18 C-5.83258301 17.21753906 -5.66516602 16.43507813 -5.49267578 15.62890625 C-5.02990108 13.53380729 -4.52518108 11.45520942 -4 9.375 C-3.835 8.68277344 -3.67 7.99054687 -3.5 7.27734375 C-2.24415584 2.24415584 -2.24415584 2.24415584 0 0 Z " fill="#8B8687" transform="translate(76,49)"/>
<path d="M0 0 C14.40058576 0.04215927 23.71829502 5.14075726 34.625 14.4375 C35.69814453 15.34435547 35.69814453 15.34435547 36.79296875 16.26953125 C44.88015161 24.18427951 45.94867896 36.16944795 46.1875 46.9375 C46.21448975 47.6785498 46.24147949 48.41959961 46.26928711 49.18310547 C46.23345475 54.21669924 45.01091513 57.05231071 41.81494141 60.93652344 C40.23608074 62.92807768 39.48284355 65.06193326 38.625 67.4375 C37.965 68.4275 37.305 69.4175 36.625 70.4375 C36.068125 70.210625 35.51125 69.98375 34.9375 69.75 C31.69389406 69.31167487 30.34087625 70.71523701 27.625 72.4375 C24.8125 73.125 24.8125 73.125 22.625 73.4375 C24.31173918 68.93952887 26.44173892 64.70863698 28.625 60.4375 C29.285 60.4375 29.945 60.4375 30.625 60.4375 C31.10608275 59.02148286 31.58478141 57.60465563 32.0625 56.1875 C32.32933594 55.39859375 32.59617188 54.6096875 32.87109375 53.796875 C34.97498433 47.21267857 35.38002215 41.91990506 32.625 35.4375 C31.51140554 29.75816828 31.52069607 24.19739471 31.625 18.4375 C30.965 18.4375 30.305 18.4375 29.625 18.4375 C28.1171875 16.9765625 28.1171875 16.9765625 26.5 15.0625 C25.96117187 14.43601562 25.42234375 13.80953125 24.8671875 13.1640625 C23.625 11.4375 23.625 11.4375 23.625 9.4375 C21.95853975 8.77031753 20.29182561 8.10376916 18.625 7.4375 C17.80644531 7.09589844 16.98789063 6.75429688 16.14453125 6.40234375 C7.05533023 2.95290671 -1.76864225 2.65097462 -11.375 2.4375 C-8.17036448 -0.76713552 -4.36559285 0.0090884 0 0 Z M31.625 70.4375 C33.625 71.4375 33.625 71.4375 33.625 71.4375 Z " fill="#918A8A" transform="translate(197.375,52.5625)"/>
<path d="M0 0 C2.22808159 -0.10853983 4.45769932 -0.18583307 6.6875 -0.25 C7.92886719 -0.29640625 9.17023438 -0.3428125 10.44921875 -0.390625 C14.5554638 0.06110713 16.15539619 1.06293296 19 4 C19 4.66 19 5.32 19 6 C19.66 6 20.32 6 21 6 C20.59279079 9.46127828 19.87437614 11.18474097 17.875 14.125 C17.25625 15.07375 16.6375 16.0225 16 17 C16.495 18.485 16.495 18.485 17 20 C16.34 20.99 15.68 21.98 15 23 C15.66 23.33 16.32 23.66 17 24 C18.0703125 25.77734375 18.0703125 25.77734375 19.125 27.9375 C19.47820312 28.64777344 19.83140625 29.35804688 20.1953125 30.08984375 C21 32 21 32 21 34 C21.99 34.33 22.98 34.66 24 35 C23.505 35.99 23.505 35.99 23 37 C22.01 36.34 21.02 35.68 20 35 C20 34.34 20 33.68 20 33 C19.01 33.495 19.01 33.495 18 34 C15.9796989 34.04637707 13.95797959 34.03781014 11.9375 34 C7.93593613 33.96029319 4.09010514 34.02149256 0.125 34.5625 C-2.81709547 34.95979026 -4.58734757 34.90885986 -7.625 34.4375 C-11.01150916 33.76503845 -11.01150916 33.76503845 -14.21484375 34.96484375 C-18.30118743 36.08236808 -21.71231034 36.19978212 -25.9375 36.125 C-26.62134766 36.11597656 -27.30519531 36.10695313 -28.00976562 36.09765625 C-29.67333287 36.07438958 -31.33671631 36.03853167 -33 36 C-33.33 35.34 -33.66 34.68 -34 34 C-33.05125 33.731875 -32.1025 33.46375 -31.125 33.1875 C-27.74732727 32.25013412 -27.74732727 32.25013412 -26 29 C-23.93359375 28.48828125 -23.93359375 28.48828125 -21.4375 28.3125 C-20.09945312 28.21195312 -20.09945312 28.21195312 -18.734375 28.109375 C-16.20914681 28.00836587 -13.71353133 28.01164031 -11.1875 28.0625 C-8.49039907 28.10478904 -7.09489791 28.03893248 -4.5625 27 C-0.48809482 25.40998822 3.67615436 25.8488753 8 26 C8 25.34 8 24.68 8 24 C8.99 24 9.98 24 11 24 C10.61180675 17.70631366 8.40675353 13.80740624 4.9375 8.625 C0 1.06718963 0 1.06718963 0 0 Z " fill="#527691" transform="translate(139,285)"/>
<path d="M0 0 C4.78989297 2.16685635 5.83935748 8.10798312 7.6171875 12.8137207 C8.59165243 15.5110061 9.52071918 18.22010739 10.4375 20.9375 C10.92379883 22.31615234 10.92379883 22.31615234 11.41992188 23.72265625 C11.72091797 24.61339844 12.02191406 25.50414062 12.33203125 26.421875 C12.6050708 27.21819336 12.87811035 28.01451172 13.15942383 28.83496094 C13.70137808 31.57343558 13.3315139 33.50874617 12.625 36.1875 C9.655 36.6825 9.655 36.6825 6.625 37.1875 C5.965 35.2075 5.305 33.2275 4.625 31.1875 C1.325 31.1875 -1.975 31.1875 -5.375 31.1875 C-5.705 32.5075 -6.035 33.8275 -6.375 35.1875 C-7.035 35.1875 -7.695 35.1875 -8.375 35.1875 C-9.035 36.5075 -9.695 37.8275 -10.375 39.1875 C-11.695 38.8575 -13.015 38.5275 -14.375 38.1875 C-13.87651464 30.0630632 -11.5636698 22.92301881 -8.9375 15.25 C-8.52951172 14.01958984 -8.12152344 12.78917969 -7.70117188 11.52148438 C-3.91854504 0.30935882 -3.91854504 0.30935882 0 0 Z " fill="#576F82" transform="translate(184.375,217.8125)"/>
<path d="M0 0 C5.09519354 6.14937152 8.46788373 12.40365119 11 20 C12.65 20.33 14.3 20.66 16 21 C16 21.33 16 21.66 16 22 C-21.62 22 -59.24 22 -98 22 C-97 20 -97 20 -94.07421875 18.91015625 C-89.3709906 17.68181762 -84.64977613 17.5832225 -79.8125 17.4375 C-78.04804836 17.37736278 -76.2837128 17.31369199 -74.51953125 17.24609375 C-73.74714111 17.22216553 -72.97475098 17.1982373 -72.17895508 17.17358398 C-70.03070995 17.06899912 -70.03070995 17.06899912 -68.1335144 16.49822998 C-65.91058887 15.97912022 -63.9649559 15.86649324 -61.68481445 15.85473633 C-60.8390535 15.84835648 -59.99329254 15.84197662 -59.12190247 15.83540344 C-58.21155746 15.83429062 -57.30121246 15.8331778 -56.36328125 15.83203125 C-55.41043747 15.82870285 -54.45759369 15.82537445 -53.47587585 15.82194519 C-51.45259075 15.81688128 -49.42929729 15.8145367 -47.40600586 15.81469727 C-44.36882892 15.81254001 -41.33203313 15.7944608 -38.29492188 15.77539062 C-26.71188016 15.74299698 -15.46111386 16.29651655 -4 18 C-4.26103516 17.07960938 -4.26103516 17.07960938 -4.52734375 16.140625 C-5.06005393 13.7280202 -4.74723504 12.32473122 -4 10 C-2.02 10.66 -0.04 11.32 2 12 C1.505 10.14375 1.505 10.14375 1 8.25 C0.20108841 5.25408155 0 3.19892281 0 0 Z " fill="#446783" transform="translate(173,313)"/>
<path d="M0 0 C1.85546875 -0.0625 1.85546875 -0.0625 4.79296875 0.125 C6.79296875 2.125 6.79296875 2.125 6.91796875 4.75 C6.87671875 5.53375 6.83546875 6.3175 6.79296875 7.125 C1.8000058 10.0695679 -2.54260751 10.75995936 -8.20703125 11.125 C-8.20703125 12.445 -8.20703125 13.765 -8.20703125 15.125 C-7.58054688 15.10179687 -6.9540625 15.07859375 -6.30859375 15.0546875 C-5.49132812 15.03664062 -4.6740625 15.01859375 -3.83203125 15 C-3.01992187 14.97679687 -2.2078125 14.95359375 -1.37109375 14.9296875 C0.79296875 15.125 0.79296875 15.125 2.79296875 17.125 C3.16796875 19.5625 3.16796875 19.5625 2.79296875 22.125 C-0.26604717 25.55109783 -3.79736113 25.70099326 -8.20703125 26.125 C-8.17222656 26.89585937 -8.13742188 27.66671875 -8.1015625 28.4609375 C-8.07449219 29.46382812 -8.04742187 30.46671875 -8.01953125 31.5 C-7.98472656 32.49773437 -7.94992188 33.49546875 -7.9140625 34.5234375 C-8.01074219 35.38195312 -8.10742188 36.24046875 -8.20703125 37.125 C-11.20703125 39.125 -11.20703125 39.125 -13.89453125 38.75 C-14.65765625 38.54375 -15.42078125 38.3375 -16.20703125 38.125 C-16.28118293 33.33784377 -16.33563329 28.55102173 -16.37182617 23.76342773 C-16.38691368 22.13478777 -16.40738631 20.50618844 -16.43334961 18.87768555 C-16.46973574 16.53684465 -16.48675745 14.19654081 -16.5 11.85546875 C-16.51548386 11.12724411 -16.53096771 10.39901947 -16.54692078 9.64872742 C-16.54859754 4.61324858 -16.54859754 4.61324858 -14.84204102 2.17382812 C-12.54795493 0.70221489 -10.6646888 0.60767401 -7.95703125 0.4375 C-6.98378906 0.375625 -6.01054687 0.31375 -5.0078125 0.25 C-3.33812495 0.17548117 -1.6686754 0.09450905 0 0 Z " fill="#72899B" transform="translate(164.20703125,218.875)"/>
<path d="M0 0 C3.94900804 2.0862684 6.67023861 4.20019199 9 8 C9.6171875 11.05859375 9.6171875 11.05859375 9.875 14.4375 C10.02582031 16.10619141 10.02582031 16.10619141 10.1796875 17.80859375 C9.9783331 21.38482307 9.0722865 23.12778944 7 26 C6.71125 25.38125 6.4225 24.7625 6.125 24.125 C5.06279958 21.86674235 5.06279958 21.86674235 3 20 C2.67 20 2.34 20 2 20 C1.9175 18.906875 1.835 17.81375 1.75 16.6875 C1.31751592 13.05195445 1.31751592 13.05195445 -0.6875 11 C-3.87167993 9.62305733 -5.70924801 10.019776 -9 11 C-11.19324308 12.66045054 -11.91240239 13.54149359 -12.43359375 16.26953125 C-12.44269082 22.1917264 -11.84319177 25.43620977 -8 30 C-9.98 30.99 -9.98 30.99 -12 32 C-12 32.66 -12 33.32 -12 34 C-15.50927259 33.80504041 -16.79648221 33.20351779 -19.3125 30.6875 C-22.14228937 25.85134358 -21.76468795 20.37988423 -21 15 C-19.34143756 9.47400623 -16.95294319 5.23054876 -12.1875 1.875 C-7.8786695 -0.40519091 -4.82174219 -0.69993032 0 0 Z " fill="#435262" transform="translate(219,215)"/>
<path d="M0 0 C1.051875 -0.01417969 2.10375 -0.02835937 3.1875 -0.04296875 C6 0.1875 6 0.1875 9 2.1875 C8.24074219 2.20167969 7.48148438 2.21585937 6.69921875 2.23046875 C3.72324735 2.3732845 0.91886201 2.5821064 -2 3.1875 C-4.09976197 5.48987282 -4.09976197 5.48987282 -5 8.1875 C-5.99 8.8475 -6.98 9.5075 -8 10.1875 C-11.4027857 18.72354788 -11.64083675 28.12172419 -12 37.1875 C-15.3 36.5275 -18.6 35.8675 -22 35.1875 C-21.67 33.8675 -21.34 32.5475 -21 31.1875 C-21.66 31.1875 -22.32 31.1875 -23 31.1875 C-24.59137938 25.21982734 -23.32759079 21.42549146 -21.0234375 15.765625 C-19.88590971 13.11609286 -19.88590971 13.11609286 -19.3125 9.875 C-17.18371768 5.51606476 -13.17003446 3.46949747 -9 1.1875 C-5.79226388 0.11825463 -3.37015182 0.02065044 0 0 Z " fill="#B8A89D" transform="translate(184,75.8125)"/>
<path d="M0 0 C0 0.33 0 0.66 0 1 C-0.76484207 1.02283554 -1.52968414 1.04567108 -2.31770325 1.06919861 C-9.56944207 1.28630526 -16.82107255 1.50664052 -24.07260609 1.73049068 C-27.79957453 1.84542883 -31.52657102 1.95917239 -35.25366211 2.07006836 C-38.85882958 2.17738256 -42.46388313 2.28798815 -46.0688839 2.40075874 C-47.43576262 2.44296073 -48.80267687 2.48402961 -50.16962624 2.5238781 C-57.35636648 2.73414423 -64.48649735 3.06675389 -71.64186096 3.77610779 C-74.73974687 4.07023486 -77.83182608 4.21043224 -80.94140625 4.31640625 C-82.17262207 4.35854248 -83.40383789 4.40067871 -84.67236328 4.4440918 C-85.9561084 4.4831665 -87.23985352 4.52224121 -88.5625 4.5625 C-89.22876404 4.58301422 -89.89502808 4.60352844 -90.58148193 4.62466431 C-100.26116842 4.91778299 -109.94079332 5.12587008 -119.625 5.1875 C-120.70209229 5.20047119 -121.77918457 5.21344238 -122.88891602 5.22680664 C-123.88721436 5.22801514 -124.8855127 5.22922363 -125.9140625 5.23046875 C-127.2127124 5.23663208 -127.2127124 5.23663208 -128.53759766 5.24291992 C-131.32726651 4.96771464 -133.43369661 4.10063104 -136 3 C-137.9924325 2.62406934 -139.9918674 2.28020455 -142 2 C-142 1.67 -142 1.34 -142 1 C-140.35425434 0.97311849 -138.70838587 0.95365877 -137.0625 0.9375 C-136.14597656 0.92589844 -135.22945312 0.91429687 -134.28515625 0.90234375 C-132 1 -132 1 -131 2 C-128.17220222 1.92102187 -125.37233842 1.7808698 -122.55078125 1.59765625 C-120.7951683 1.49481807 -119.03946874 1.39344935 -117.28369141 1.29345703 C-116.39345276 1.24247864 -115.50321411 1.19150024 -114.58599854 1.13897705 C-107.79126838 0.77381383 -100.98949354 0.60469189 -94.1875 0.4375 C-93.35333557 0.41632111 -92.51917114 0.39514221 -91.659729 0.37332153 C-61.11788679 -0.37166164 -30.54844926 -0.08655898 0 0 Z " fill="#6991A9" transform="translate(180,334)"/>
<path d="M0 0 C13.77839437 -1.03194632 13.77839437 -1.03194632 18.25 2.5625 C21.27620698 5.74001733 22.01228165 8.80219703 23 13 C23.99 13.33 24.98 13.66 26 14 C27.38671875 15.70703125 27.38671875 15.70703125 28.6875 17.8125 C29.12449219 18.49957031 29.56148437 19.18664062 30.01171875 19.89453125 C31 22 31 22 31 26 C31.99 26.33 32.98 26.66 34 27 C35.63666343 29.39227097 37.11760606 31.74677428 38.5625 34.25 C39.16094727 35.25353516 39.16094727 35.25353516 39.77148438 36.27734375 C41.82714429 39.77093606 43.59892909 43.1832896 45 47 C45.65213539 48.34050052 46.31379969 49.67661368 47 51 C42.77698322 50.18788139 40.55619285 49.66434146 37.75 46.3125 C35.96697165 42.93748204 34.47214192 39.52033938 33 36 C32.443125 35.071875 31.88625 34.14375 31.3125 33.1875 C30 31 30 31 30 29 C29.01 28.67 28.02 28.34 27 28 C25.90234375 26.40625 25.90234375 26.40625 24.9375 24.5 C23.57554472 21.66980932 23.57554472 21.66980932 21 20 C20.375 16.9375 20.375 16.9375 20 14 C19.34 14 18.68 14 18 14 C16.5393715 11.35261084 16 10.10551666 16 7 C15.34 7 14.68 7 14 7 C12.9790625 5.7934375 12.9790625 5.7934375 11.9375 4.5625 C8.07143945 1.1899791 4.98452057 1.11945474 0 1 C0 0.67 0 0.34 0 0 Z " fill="#708EA5" transform="translate(144,284)"/>
<path d="M0 0 C4.78989297 2.16685635 5.83935748 8.10798312 7.6171875 12.8137207 C8.59165243 15.5110061 9.52071918 18.22010739 10.4375 20.9375 C10.92379883 22.31615234 10.92379883 22.31615234 11.41992188 23.72265625 C11.72091797 24.61339844 12.02191406 25.50414062 12.33203125 26.421875 C12.6050708 27.21819336 12.87811035 28.01451172 13.15942383 28.83496094 C13.70137808 31.57343558 13.3315139 33.50874617 12.625 36.1875 C9.655 36.6825 9.655 36.6825 6.625 37.1875 C3.7897887 31.6352112 3.24547705 27.38637485 3.625 21.1875 C2.965 21.1875 2.305 21.1875 1.625 21.1875 C0.12678941 17.81652617 -0.375 15.98307881 -0.375 12.1875 C-1.365 11.8575 -2.355 11.5275 -3.375 11.1875 C-3.375 10.1975 -3.375 9.2075 -3.375 8.1875 C-4.035 8.1875 -4.695 8.1875 -5.375 8.1875 C-4.35187861 0.34356936 -4.35187861 0.34356936 0 0 Z " fill="#3A4652" transform="translate(184.375,217.8125)"/>
<path d="M0 0 C0.33 0 0.66 0 1 0 C1.02337626 13.87590582 1.04104195 27.75180681 1.05181217 41.62772846 C1.05698651 48.07384764 1.06398254 54.51995314 1.07543945 60.96606445 C1.08646529 67.21014219 1.09231761 73.45420695 1.09487724 79.69829369 C1.09669661 82.05677685 1.10024715 84.41525946 1.10573006 86.77373695 C1.14308181 103.53815741 0.73558661 120.25155468 0 137 C-0.66 137.33 -1.32 137.66 -2 138 C-2 110.94 -2 83.88 -2 56 C-2.33 56 -2.66 56 -3 56 C-3 52.7 -3 49.4 -3 46 C-2.34 46 -1.68 46 -1 46 C-1.00523682 44.71311279 -1.01047363 43.42622559 -1.01586914 42.1003418 C-1.0339528 37.33130589 -1.04544437 32.56227302 -1.05493164 27.79321289 C-1.05996414 25.72810354 -1.06679069 23.66299776 -1.07543945 21.59790039 C-1.08755236 18.63166422 -1.09323911 15.66547511 -1.09765625 12.69921875 C-1.10539818 11.31158577 -1.10539818 11.31158577 -1.11329651 9.8959198 C-1.11337204 9.03525406 -1.11344757 8.17458832 -1.11352539 7.2878418 C-1.115746 6.53061325 -1.11796661 5.7733847 -1.12025452 4.99320984 C-1 3 -1 3 0 0 Z " fill="#8B8384" transform="translate(69,76)"/>
<path d="M0 0 C0.33 0 0.66 0 1 0 C1.09370573 21.36733743 1.16410725 42.73464066 1.20724869 64.10214233 C1.22781811 74.02487076 1.25583046 83.94747104 1.30175781 93.87011719 C1.3417985 102.5251169 1.36747359 111.18002375 1.37635398 119.83511353 C1.38153973 124.41212471 1.39360902 128.98887036 1.42292023 133.5657959 C1.45036264 137.88650722 1.45838775 142.20684728 1.45243073 146.52763748 C1.45351823 148.10124362 1.46129873 149.67486407 1.4768219 151.24839401 C1.57825574 162.07467565 0.0758505 171.6147925 -3 182 C-4.16135836 178.02112072 -3.62331819 175.11024118 -3 171 C-2.80803287 167.85726435 -2.7463073 164.71408246 -2.68359375 161.56640625 C-2.66281265 160.68846909 -2.64203156 159.81053192 -2.62062073 158.9059906 C-2.55568055 156.12490015 -2.49650073 153.34372215 -2.4375 150.5625 C-2.39426186 148.66730896 -2.35064595 146.7721265 -2.30664062 144.87695312 C-2.20005678 140.25138987 -2.09863592 135.62573929 -2 131 C-1.34 131 -0.68 131 0 131 C0 87.77 0 44.54 0 0 Z " fill="#F0F5F6" transform="translate(307,60)"/>
<path d="M0 0 C2.22808159 -0.10853983 4.45769932 -0.18583307 6.6875 -0.25 C7.92886719 -0.29640625 9.17023438 -0.3428125 10.44921875 -0.390625 C14.5554638 0.06110713 16.15539619 1.06293296 19 4 C19 4.66 19 5.32 19 6 C19.66 6 20.32 6 21 6 C20.59279079 9.46127828 19.87437614 11.18474097 17.875 14.125 C17.25625 15.07375 16.6375 16.0225 16 17 C16.33 17.99 16.66 18.98 17 20 C16.34 20.99 15.68 21.98 15 23 C15.66 23.33 16.32 23.66 17 24 C16.01 24 15.02 24 14 24 C12.69726562 22.44287109 12.69726562 22.44287109 11.40625 20.2734375 C10.69662109 19.09587891 10.69662109 19.09587891 9.97265625 17.89453125 C9.48667969 17.06308594 9.00070313 16.23164063 8.5 15.375 C7.77103516 14.16263672 7.77103516 14.16263672 7.02734375 12.92578125 C4.50258862 8.69492457 2.12827271 4.4434883 0 0 Z " fill="#476884" transform="translate(139,285)"/>
<path d="M0 0 C0.33 0 0.66 0 1 0 C1.22174933 1.45635371 1.42698698 2.91522956 1.625 4.375 C1.79902344 5.59316406 1.79902344 5.59316406 1.9765625 6.8359375 C1.98429687 7.55007812 1.99203125 8.26421875 2 9 C1.34 9.66 0.68 10.32 0 11 C-2.07094311 16.8128186 -2.07094311 16.8128186 -0.6875 22.6875 C-0.130625 23.780625 0.42625 24.87375 1 26 C1.33 27.65 1.66 29.3 2 31 C-5.92 30.67 -13.84 30.34 -22 30 C-22 29.67 -22 29.34 -22 29 C-19.36 29 -16.72 29 -14 29 C-14 22.73 -14 16.46 -14 10 C-13.34 10 -12.68 10 -12 10 C-12 9.34 -12 8.68 -12 8 C-11.34 8 -10.68 8 -10 8 C-9.67 7.01 -9.34 6.02 -9 5 C-6.9375 3.8125 -6.9375 3.8125 -5 3 C-6.14888661 11.37220563 -7.4077483 19.69996456 -9 28 C-7.68 27.67 -6.36 27.34 -5 27 C-4.97421875 25.88882813 -4.9484375 24.77765625 -4.921875 23.6328125 C-4.62814879 15.06467438 -4.08897125 7.74051767 0 0 Z " fill="#7B92A2" transform="translate(195,150)"/>
<path d="M0 0 C-0.433125 0.84691406 -0.433125 0.84691406 -0.875 1.7109375 C-2.36860085 4.75000034 -3.67509889 7.86097474 -5 10.9765625 C-6 13 -6 13 -8 15 C-11.55251441 24.47093232 -11.50411372 34.3541828 -11.625 44.3125 C-11.66940514 46.70552885 -11.71862235 49.09843063 -11.76789856 51.49136353 C-11.80010575 53.07659758 -11.83070781 54.66186511 -11.85966492 56.24716187 C-11.98672351 63.08658825 -12.24308457 69.91683071 -12.5625 76.75 C-12.60648926 77.70688721 -12.65047852 78.66377441 -12.69580078 79.6496582 C-12.79457767 81.76656282 -12.89680021 83.8833064 -13 86 C-12.34 86.33 -11.68 86.66 -11 87 C-11.15339844 87.90878906 -11.30679688 88.81757812 -11.46484375 89.75390625 C-12.23166816 95.12167713 -12.35755311 100.52488616 -12.5625 105.9375 C-12.60568359 107.00291016 -12.64886719 108.06832031 -12.69335938 109.16601562 C-12.79874489 111.77723443 -12.90087088 114.38853746 -13 117 C-13.33 117 -13.66 117 -14 117 C-14.33 98.19 -14.66 79.38 -15 60 C-15.33 60 -15.66 60 -16 60 C-16 56.7 -16 53.4 -16 50 C-15.67 50 -15.34 50 -15 50 C-15.01160156 49.15179688 -15.02320313 48.30359375 -15.03515625 47.4296875 C-15.13358316 34.63418928 -15.13170454 22.92879244 -10 11 C-9.75121094 10.3090625 -9.50242187 9.618125 -9.24609375 8.90625 C-7.66423111 4.63974048 -5.06178314 0 0 0 Z " fill="#98AEBE" transform="translate(56,35)"/>
<path d="M0 0 C0.33 0.66 0.66 1.32 1 2 C3.31 2 5.62 2 8 2 C8.33 2.99 8.66 3.98 9 5 C8.175 5.45375 7.35 5.9075 6.5 6.375 C3.70205181 9.3128456 3.57203428 9.99105372 3.4375 13.875 C3.66063217 18.74072079 4.89491143 21.31270733 8 25 C6.02 25.99 6.02 25.99 4 27 C4 27.66 4 28.32 4 29 C0.49072741 28.80504041 -0.79648221 28.20351779 -3.3125 25.6875 C-6.13048738 20.87151338 -5.81023735 15.35694115 -5 10 C-3.66084944 6.44128848 -2.0004101 3.22923344 0 0 Z " fill="#526372" transform="translate(203,220)"/>
<path d="M0 0 C1.37430407 3.71062099 0.47355772 5.43908869 -1 9 C-4.06648447 19.01498765 -4.44378126 28.72287119 -4.43237305 39.08129883 C-4.44140991 40.75807915 -4.45174178 42.43485291 -4.46325684 44.11161804 C-4.49062726 48.62311893 -4.50008395 53.13449381 -4.50611091 57.6460669 C-4.51554701 62.37596689 -4.54175429 67.10577465 -4.56611633 71.83561707 C-4.60964182 80.77415581 -4.63827422 89.71267651 -4.66143972 98.65128869 C-4.68856652 108.83524677 -4.73247318 119.01911143 -4.77772844 129.20300257 C-4.87037472 150.13528466 -4.94214672 171.06759471 -5 192 C-5.33 192 -5.66 192 -6 192 C-6.0936859 169.58959006 -6.16409764 147.17921269 -6.20724869 124.76864624 C-6.22782227 114.36164785 -6.25584272 103.95477155 -6.30175781 93.54785156 C-6.3417856 84.47095019 -6.36747058 75.3941373 -6.37635398 66.31715012 C-6.38154187 61.51657905 -6.39362526 56.71626099 -6.42292023 51.91577148 C-6.45034204 47.38494605 -6.45839173 42.85447461 -6.45243073 38.32357407 C-6.45351913 36.67256614 -6.46131206 35.02154471 -6.4768219 33.37060928 C-6.57418165 22.45960421 -5.56542068 12.38133639 -2 2 C-1.34 1.34 -0.68 0.68 0 0 Z " fill="#B4A9A1" transform="translate(76,49)"/>
<path d="M0 0 C0.99 0 1.98 0 3 0 C4.35439668 2.70879335 4.06501451 5.00933268 4 8 C4.99 8.33 5.98 8.66 7 9 C10.47921599 15.41153181 12.36509502 22.7683809 11 30 C9.60798865 33.51133659 7.93180154 36.75733313 6 40 C5.34 40 4.68 40 4 40 C3.896875 40.763125 3.79375 41.52625 3.6875 42.3125 C2.94209384 45.22636046 2.15541061 46.02950397 0 48 C0.08760589 45.93673023 0.19579273 43.8743284 0.3125 41.8125 C0.37050781 40.66394531 0.42851562 39.51539063 0.48828125 38.33203125 C1 35 1 35 2.51953125 32.703125 C4.78550426 28.56578113 4.43518684 24.57523064 4.375 19.9375 C4.38660156 19.03966797 4.39820313 18.14183594 4.41015625 17.21679688 C4.39857315 11.02529887 4.39857315 11.02529887 1 6 C0.3125 2.75 0.3125 2.75 0 0 Z " fill="#646770" transform="translate(222,73)"/>
<path d="M0 0 C5.09519354 6.14937152 8.46788373 12.40365119 11 20 C12.65 20.33 14.3 20.66 16 21 C16 21.33 16 21.66 16 22 C9.15309732 22.2402422 2.70529139 21.47866617 -4.0703125 20.50390625 C-8.9993955 19.8718469 -13.91676993 19.57753734 -18.87890625 19.34375 C-22.15172789 18.98328904 -24.92253004 18.14768804 -28 17 C-28 16.67 -28 16.34 -28 16 C-19.98529415 16.54278267 -11.98696098 17.13505261 -4 18 C-4.17402344 17.38640625 -4.34804687 16.7728125 -4.52734375 16.140625 C-5.06005393 13.7280202 -4.74723504 12.32473122 -4 10 C-2.02 10.66 -0.04 11.32 2 12 C1.67 10.7625 1.34 9.525 1 8.25 C0.20108841 5.25408155 0 3.19892281 0 0 Z " fill="#334358" transform="translate(173,313)"/>
<path d="M0 0 C4.39786585 1.56368564 4.39786585 1.56368564 5.8125 4 C6.2232174 6.73241162 6.25604276 9.27050612 5.8125 12 C4.3125 14 4.3125 14 2.8125 15 C1.4925 14.34 0.1725 13.68 -1.1875 13 C-2.1775 14.32 -3.1675 15.64 -4.1875 17 C-3.1975 18.32 -2.2075 19.64 -1.1875 21 C-5.14165501 19.71757135 -7.01173553 18.54960431 -9.1875 15 C-10.03169129 10.9753671 -10.31028179 6.77484406 -8.05078125 3.203125 C-5.42879109 0.75318144 -3.56368703 0 0 0 Z " fill="#E4E2DF" transform="translate(215.1875,224)"/>
<path d="M0 0 C3.58964923 5.38447385 4.33843537 10.37807923 4.25 16.75 C4.23984863 17.80453369 4.23984863 17.80453369 4.22949219 18.88037109 C4.06669169 27.12829848 3.55907539 34.53945293 -2 41 C-7.23891547 45.54572564 -14.08901387 49.79808937 -21 51 C-21.66 50.67 -22.32 50.34 -23 50 C-25.09821215 50.39938767 -25.09821215 50.39938767 -27 51 C-23.49367828 45.74051743 -20.5685696 44.09520486 -14.5 42.4453125 C-11.945701 41.99032799 -9.58878917 41.91678892 -7 42 C-5.71785861 39.53434347 -4.62043721 37.07584711 -3.5625 34.5 C-2 31 -2 31 -0.41796875 29.32421875 C1.75113034 25.7688084 1.3600032 22.39178523 1.25 18.3125 C1.23904297 17.50828613 1.22808594 16.70407227 1.21679688 15.87548828 C1.11723652 10.53277647 0.78371238 5.29005853 0 0 Z M-11 40 C-10.67 40.66 -10.34 41.32 -10 42 C-10.66 41.67 -11.32 41.34 -12 41 C-11.67 40.67 -11.34 40.34 -11 40 Z " fill="#BFB3A7" transform="translate(241,81)"/>
<path d="M0 0 C0.33 0.99 0.66 1.98 1 3 C0.54149658 3.40726318 0.08299316 3.81452637 -0.3894043 4.23413086 C-2.5005283 6.12255459 -4.59385954 8.02971796 -6.6875 9.9375 C-7.7693457 10.8975293 -7.7693457 10.8975293 -8.87304688 11.87695312 C-15.1416931 17.63036816 -20.4069003 24.22481606 -21.17358398 32.98291016 C-21.19751221 33.66144043 -21.22144043 34.3399707 -21.24609375 35.0390625 C-21.27896484 35.78414062 -21.31183594 36.52921875 -21.34570312 37.296875 C-21.40720277 38.8566106 -21.46445373 40.41651919 -21.51757812 41.9765625 C-21.78479726 47.78479726 -21.78479726 47.78479726 -24 50 C-26.125 49.625 -26.125 49.625 -28 49 C-27.52759949 45.51987918 -27.0459514 42.04110146 -26.5625 38.5625 C-26.42779297 37.56927734 -26.29308594 36.57605469 -26.15429688 35.55273438 C-26.02216797 34.60849609 -25.89003906 33.66425781 -25.75390625 32.69140625 C-25.63345947 31.81685791 -25.5130127 30.94230957 -25.38891602 30.04125977 C-25 28 -25 28 -24 27 C-23.9175 25.9275 -23.835 24.855 -23.75 23.75 C-22.6544989 18.27249452 -19.81029329 16.22089548 -15.3125 13.1875 C-13 12 -13 12 -11 12 C-11 11.34 -11 10.68 -11 10 C-9.35648543 8.63823078 -7.68477344 7.31037934 -6 6 C-4.3142876 4.35259924 -2.6436814 2.68933922 -1 1 C-0.67 0.67 -0.34 0.34 0 0 Z " fill="#7A8E9E" transform="translate(213,129)"/>
<path d="M0 0 C15.37165432 0.04500218 25.86077336 6.14069878 36.96875 16.65625 C40.50362529 20.41556182 40.50362529 20.41556182 41.625 22.4375 C41.295 23.7575 40.965 25.0775 40.625 26.4375 C38.15 22.4775 38.15 22.4775 35.625 18.4375 C35.295 19.0975 34.965 19.7575 34.625 20.4375 C33.965 20.4375 33.305 20.4375 32.625 20.4375 C32.398125 19.839375 32.17125 19.24125 31.9375 18.625 C30.73958333 16.23958333 30.73958333 16.23958333 28.125 14.9375 C25.625 13.4375 25.625 13.4375 24.625 11.375 C23.20385215 8.62152603 21.49669366 8.48544479 18.625 7.4375 C17.80644531 7.09589844 16.98789063 6.75429688 16.14453125 6.40234375 C7.05533023 2.95290671 -1.76864225 2.65097462 -11.375 2.4375 C-8.17036448 -0.76713552 -4.36559285 0.0090884 0 0 Z " fill="#9F9FA2" transform="translate(197.375,52.5625)"/>
<path d="M0 0 C-2.7422107 2.7422107 -4.40954266 2.32903501 -8.25390625 2.47070312 C-10.22605103 2.55088684 -10.22605103 2.55088684 -12.23803711 2.63269043 C-12.94266083 2.65685532 -13.64728455 2.6810202 -14.3732605 2.70591736 C-16.57553578 2.78169857 -18.77705539 2.86929622 -20.97875977 2.96008301 C-26.44672604 3.18307 -31.91542246 3.38542005 -37.38415527 3.58856201 C-42.00451873 3.76097426 -46.62445561 3.94108611 -51.24411011 4.13157654 C-53.41651431 4.21791595 -55.58912561 4.29279268 -57.76196289 4.36730957 C-59.07672607 4.42076538 -60.39148926 4.47422119 -61.74609375 4.52929688 C-62.90810303 4.57211792 -64.0701123 4.61493896 -65.26733398 4.65905762 C-68.1432331 4.73381785 -68.1432331 4.73381785 -70 7 C-72.5 6.875 -72.5 6.875 -75 6 C-76.15625 3.9453125 -76.15625 3.9453125 -77 2 C-70.0715235 1.081941 -63.35696544 0.9180685 -56.375 1 C-44.79060321 1.07408087 -33.24541437 0.78537365 -21.67138672 0.35546875 C-14.44268872 0.09050796 -7.23365881 -0.06712507 0 0 Z " fill="#7FA5BB" transform="translate(117,337)"/>
<path d="M0 0 C2 2 2 2 2.3125 4.5 C2.209375 5.325 2.10625 6.15 2 7 C-1.65203253 9.43468835 -3.02000579 9.126274 -7.3125 8.75 C-8.42238281 8.66234375 -9.53226563 8.5746875 -10.67578125 8.484375 C-13.98038135 8.00285865 -16.87316331 7.15423321 -20 6 C-19.125 2.125 -19.125 2.125 -18 1 C-12.08313761 0.17082032 -5.96951649 -0.38103297 0 0 Z " fill="#37414F" transform="translate(169,219)"/>
<path d="M0 0 C0 0.33 0 0.66 0 1 C-28.66940846 1.63999613 -57.32260866 2.18933778 -86 2 C-85.67 1.34 -85.34 0.68 -85 0 C-56.73597394 -2.17714644 -28.30148953 -0.73171698 0 0 Z " fill="#537A95" transform="translate(161,333)"/>
<path d="M0 0 C1.12894876 0.93274109 2.25300876 1.87140122 3.375 2.8125 C4.00148438 3.33457031 4.62796875 3.85664063 5.2734375 4.39453125 C7 6 7 6 9 9 C12.22228712 10.43156953 12.22228712 10.43156953 15.9375 11.625 C17.18402344 12.05039062 18.43054688 12.47578125 19.71484375 12.9140625 C20.79894531 13.27242188 21.88304688 13.63078125 23 14 C23.99 14.33 24.98 14.66 26 15 C28.13661258 15.15070797 30.27712124 15.2485966 32.41796875 15.31640625 C33.67158203 15.35830078 34.92519531 15.40019531 36.21679688 15.44335938 C38.18229492 15.50233398 38.18229492 15.50233398 40.1875 15.5625 C41.52279978 15.60570992 42.85808652 15.649325 44.19335938 15.69335938 C47.46213297 15.79956502 50.73098333 15.90160997 54 16 C54 16.33 54 16.66 54 17 C47.290501 18.20477135 40.61653044 18.25651511 33.8125 18.3125 C32.65685547 18.34150391 31.50121094 18.37050781 30.31054688 18.40039062 C22.46412132 18.4576638 15.0509243 17.71143091 8 14 C6.45843267 11.98066709 5.60051151 10.27589385 4.734375 7.8984375 C3.73824365 5.32333199 1.99565386 3.85310716 0 2 C0 1.34 0 0.68 0 0 Z " fill="#849AAA" transform="translate(81,269)"/>
<path d="M0 0 C2 3 2 3 2 5 C2.69867188 4.97679687 3.39734375 4.95359375 4.1171875 4.9296875 C5.02726563 4.91164062 5.93734375 4.89359375 6.875 4.875 C8.23238281 4.84019531 8.23238281 4.84019531 9.6171875 4.8046875 C12 5 12 5 14 7 C14.25 9.5 14.25 9.5 14 12 C13.34 12.66 12.68 13.32 12 14 C9.875 13.6875 9.875 13.6875 7 13 C5.60518562 12.84472316 4.20923921 12.69938551 2.8125 12.5625 C-1 12 -1 12 -3 10 C-3.046875 8.125 -3.046875 8.125 -2.75 6 C-2.66234375 5.29875 -2.5746875 4.5975 -2.484375 3.875 C-2 2 -2 2 0 0 Z " fill="#4C4F54" transform="translate(153,229)"/>
<path d="M0 0 C2.25 -0.0625 2.25 -0.0625 5 1 C8.57525897 7.0014202 10.58910122 14.15971441 12.8125 20.75 C13.29879883 22.12865234 13.29879883 22.12865234 13.79492188 23.53515625 C14.24641602 24.87126953 14.24641602 24.87126953 14.70703125 26.234375 C14.9800708 27.03069336 15.25311035 27.82701172 15.53442383 28.64746094 C16.07637808 31.38593558 15.7065139 33.32124617 15 36 C14.34 36 13.68 36 13 36 C12.7525 34.88625 12.505 33.7725 12.25 32.625 C11.19222215 28.31723805 9.57588645 24.35641129 7.8046875 20.296875 C7 18 7 18 7 14 C6.34 14 5.68 14 5 14 C4.70996094 12.73542969 4.70996094 12.73542969 4.4140625 11.4453125 C4.15367187 10.34960938 3.89328125 9.25390625 3.625 8.125 C3.36976563 7.03445312 3.11453125 5.94390625 2.8515625 4.8203125 C2.21093785 1.89591545 2.21093785 1.89591545 0 0 Z " fill="#646F7B" transform="translate(182,218)"/>
<path d="M0 0 C-0.433125 0.84691406 -0.433125 0.84691406 -0.875 1.7109375 C-2.36860085 4.75000034 -3.67509889 7.86097474 -5 10.9765625 C-6 13 -6 13 -8 15 C-11.77972334 24.87256152 -11.5442652 35.35053506 -11.6875 45.75 C-11.7207504 47.42971281 -11.75524688 49.10940143 -11.79101562 50.7890625 C-11.87502269 54.85923927 -11.94224019 58.92936964 -12 63 C-12.33 63 -12.66 63 -13 63 C-13.24386422 57.36313213 -13.45835215 51.72614548 -13.64697266 46.0871582 C-13.71496829 44.17345168 -13.79065531 42.26000098 -13.87451172 40.34692383 C-14.73618013 20.46107021 -14.73618013 20.46107021 -10 11 C-9.51918889 9.68810152 -9.03987132 8.37565405 -8.5625 7.0625 C-6.73069863 3.47216931 -4.36806781 0 0 0 Z " fill="#8D949C" transform="translate(56,35)"/>
<path d="M0 0 C8.08476716 0.78875777 12.9046864 4.40038217 17.93359375 10.4140625 C19 12 19 12 19 14 C19.66 14 20.32 14 21 14 C21.33 18.29 21.66 22.58 22 27 C18 24 18 24 17.390625 21.95703125 C17.26041667 19.97135417 17.13020833 17.98567708 17 16 C16.01 16 15.02 16 14 16 C12.5393715 13.35261084 12 12.10551666 12 9 C11.01 9 10.02 9 9 9 C7.4375 7.5625 7.4375 7.5625 6 6 C5.34 5.67 4.68 5.34 4 5 C4 4.34 4 3.68 4 3 C2.68 2.67 1.36 2.34 0 2 C0 1.34 0 0.68 0 0 Z " fill="#7B808C" transform="translate(208,57)"/>
<path d="M0 0 C0.33 0 0.66 0 1 0 C1.0825 1.0725 1.165 2.145 1.25 3.25 C1.64753425 7.04044689 1.64753425 7.04044689 4.125 9.125 C4.74375 9.74375 5.3625 10.3625 6 11 C5.83849795 14.39154295 5.41703243 15.58296757 3 18 C-0.125 18.125 -0.125 18.125 -3 18 C-4.7610915 7.41430867 -4.7610915 7.41430867 -2.0625 2.8125 C-1.381875 1.884375 -0.70125 0.95625 0 0 Z " fill="#606C79" transform="translate(223,240)"/>
<path d="M0 0 C0.66 1.32 1.32 2.64 2 4 C1.38511719 4.68835938 1.38511719 4.68835938 0.7578125 5.390625 C-0.05042969 6.31101562 -0.05042969 6.31101562 -0.875 7.25 C-1.40867188 7.85328125 -1.94234375 8.4565625 -2.4921875 9.078125 C-3.9797487 10.97418746 -5.00322436 12.81290005 -6 15 C-0.73116591 16.21434081 4.53305118 16.35607686 9.91796875 16.62109375 C13 17 13 17 15 19 C14.13117188 18.97679687 13.26234375 18.95359375 12.3671875 18.9296875 C11.21476562 18.91164063 10.06234375 18.89359375 8.875 18.875 C7.73804688 18.85179687 6.60109375 18.82859375 5.4296875 18.8046875 C1.92766385 19.00411937 -0.71804175 19.81997007 -4 21 C-7.375 21.125 -7.375 21.125 -10 21 C-10.33 21.66 -10.66 22.32 -11 23 C-10.53987105 17.42182129 -9.09853811 13.92758494 -6.0625 9.25 C-5.35222656 8.14140625 -4.64195312 7.0328125 -3.91015625 5.890625 C-2.61084403 3.92438565 -1.30729426 1.96094139 0 0 Z " fill="#82AEC6" transform="translate(208,308)"/>
<path d="M0 0 C0.33 0.66 0.66 1.32 1 2 C3.31 2 5.62 2 8 2 C8.33 2.99 8.66 3.98 9 5 C8.071875 5.598125 7.14375 6.19625 6.1875 6.8125 C1.6641346 9.91677037 -0.24450982 12.02852607 -2.1875 17.1875 C-2.53167969 18.08855469 -2.87585938 18.98960937 -3.23046875 19.91796875 C-3.48441406 20.60503906 -3.73835937 21.29210937 -4 22 C-4.33 22 -4.66 22 -5 22 C-5.6727248 13.29942593 -4.61280192 7.44638025 0 0 Z " fill="#718998" transform="translate(203,220)"/>
<path d="M0 0 C0.33 0 0.66 0 1 0 C1.22174933 1.45635371 1.42698698 2.91522956 1.625 4.375 C1.74101562 5.18710938 1.85703125 5.99921875 1.9765625 6.8359375 C1.98429688 7.55007812 1.99203125 8.26421875 2 9 C1.34 9.66 0.68 10.32 0 11 C-2.07094311 16.8128186 -2.07094311 16.8128186 -0.6875 22.6875 C0.1478125 24.3271875 0.1478125 24.3271875 1 26 C1.6875 28.9375 1.6875 28.9375 2 31 C-0.31 30.67 -2.62 30.34 -5 30 C-5 9.46511628 -5 9.46511628 0 0 Z " fill="#969290" transform="translate(195,150)"/>
<path d="M0 0 C2.38255267 1.94936128 3.03741412 3.11691913 4 6.125 C4.33 7.07375 4.66 8.0225 5 9 C5.99 9.33 6.98 9.66 8 10 C7.67 10.66 7.34 11.32 7 12 C6.01 11.34 5.02 10.68 4 10 C4 9.34 4 8.68 4 8 C3.01 8.495 3.01 8.495 2 9 C-0.0203011 9.04637707 -2.04202041 9.03781014 -4.0625 9 C-9.48464648 8.95196326 -14.62832369 9.30688048 -20 10 C-20.99 10 -21.98 10 -23 10 C-23.33 9.01 -23.66 8.02 -24 7 C-23.44538086 6.94465088 -22.89076172 6.88930176 -22.31933594 6.83227539 C-19.7959083 6.57871893 -17.27296117 6.32065495 -14.75 6.0625 C-13.87730469 5.97548828 -13.00460938 5.88847656 -12.10546875 5.79882812 C-11.26113281 5.71181641 -10.41679687 5.62480469 -9.546875 5.53515625 C-8.77182617 5.456604 -7.99677734 5.37805176 -7.19824219 5.29711914 C-4.98642505 5.04835921 -4.98642505 5.04835921 -2.84082031 4.40405273 C-1 4 -1 4 1 5 C0.67 3.35 0.34 1.7 0 0 Z " fill="#446380" transform="translate(155,310)"/>
<path d="M0 0 C3.07335231 3.07335231 3.78979757 6.70897101 4 11 C2.1875 14.25 2.1875 14.25 0 17 C-0.78215588 19.7282504 -0.78215588 19.7282504 -1 22 C-2.32 21.67 -3.64 21.34 -5 21 C-4.5003731 13.50559651 -2.56235522 7.04349737 0 0 Z " fill="#758FA2" transform="translate(175,235)"/>
<path d="M0 0 C0.66 0.33 1.32 0.66 2 1 C-2.14822865 5.98854507 -5.4139816 8.71639121 -11.88671875 9.80859375 C-13.91716639 9.99249751 -15.96124101 10 -18 10 C-20.3065181 11.77380168 -22.42484631 13.54268829 -24.5625 15.5 C-30.6097973 21 -30.6097973 21 -34 21 C-23.27659574 7.72340426 -23.27659574 7.72340426 -16 6 C-14.7934375 6.309375 -14.7934375 6.309375 -13.5625 6.625 C-10.8000835 7.30130427 -10.8000835 7.30130427 -8 5.25 C-7.01 4.5075 -6.02 3.765 -5 3 C-2.25 1.1875 -2.25 1.1875 0 0 Z " fill="#C1BCB7" transform="translate(234,124)"/>
<path d="M0 0 C0.66 0.33 1.32 0.66 2 1 C5.04742097 12.58019968 2.70191329 25.22478204 -2 36 C-2.99 36.495 -2.99 36.495 -4 37 C-3.91239411 34.93673023 -3.80420727 32.8743284 -3.6875 30.8125 C-3.62949219 29.66394531 -3.57148438 28.51539062 -3.51171875 27.33203125 C-3 24 -3 24 -1.46875 21.6875 C0.75604254 17.61660301 0.31996331 13.74219986 0.1875 9.1875 C0.16719727 7.86202148 0.16719727 7.86202148 0.14648438 6.50976562 C0.11129217 4.33957977 0.05748985 2.16970967 0 0 Z " fill="#3E4A59" transform="translate(226,84)"/>
<path d="M0 0 C1.20003662 -0.01417969 2.40007324 -0.02835937 3.63647461 -0.04296875 C6.59765625 0.1875 6.59765625 0.1875 9.59765625 2.1875 C8.69144531 2.24808594 7.78523438 2.30867188 6.8515625 2.37109375 C5.02431641 2.49677734 5.02431641 2.49677734 3.16015625 2.625 C1.96519531 2.70621094 0.77023438 2.78742188 -0.4609375 2.87109375 C-2.43451644 3.02952774 -4.41026298 3.18860074 -6.37133789 3.46118164 C-13.58864615 4.4568756 -20.70435104 4.07310121 -27.96484375 3.75 C-29.90713867 3.67168945 -29.90713867 3.67168945 -31.88867188 3.59179688 C-35.06019651 3.4630634 -38.23132871 3.32814343 -41.40234375 3.1875 C-41.40234375 2.8575 -41.40234375 2.5275 -41.40234375 2.1875 C-36.97767354 1.89646947 -32.55263898 1.61199996 -28.12719727 1.33300781 C-26.62904119 1.23770404 -25.1309883 1.14076055 -23.63305664 1.04199219 C-15.75937454 0.52395201 -7.89173119 0.08608392 0 0 Z " fill="#A4B1B9" transform="translate(148.40234375,281.8125)"/>
<path d="M0 0 C1.37385661 3.70941284 0.47512479 5.4410248 -1 9 C-4.26659536 19.54390282 -4.53625979 29.88947495 -4.6875 40.8125 C-4.72075974 42.4876554 -4.755257 44.1627867 -4.79101562 45.83789062 C-4.87491133 49.89179141 -4.94217651 53.94564698 -5 58 C-5.33 58 -5.66 58 -6 58 C-6.10035245 52.59640665 -6.17215336 47.19337871 -6.21972656 41.7890625 C-6.23959897 39.95823699 -6.26670663 38.12747282 -6.30175781 36.296875 C-6.52416343 24.36546753 -6.07404851 13.34886743 -2 2 C-1.34 1.34 -0.68 0.68 0 0 Z " fill="#B8AA9B" transform="translate(76,49)"/>
<path d="M0 0 C2.92650183 2.63385165 4.99930443 5.61951439 7 9 C7 10.32 7 11.64 7 13 C7.99 13.33 8.98 13.66 10 14 C11.16674805 15.45874023 11.16674805 15.45874023 12.26171875 17.30859375 C12.65810547 17.97310547 13.05449219 18.63761719 13.46289062 19.32226562 C13.86701172 20.02029297 14.27113281 20.71832031 14.6875 21.4375 C15.10322266 22.13166016 15.51894531 22.82582031 15.94726562 23.54101562 C19 28.71913485 19 28.71913485 19 31 C18.34 31 17.68 31 17 31 C15.3633245 28.73701547 13.85434489 26.48732888 12.375 24.125 C11.95476562 23.47402344 11.53453125 22.82304687 11.1015625 22.15234375 C8 17.26838981 8 17.26838981 8 15 C7.06220703 14.88398438 7.06220703 14.88398438 6.10546875 14.765625 C4 14 4 14 2.98828125 12.109375 C2.76527344 11.33078125 2.54226562 10.5521875 2.3125 9.75 C2.0753125 8.94175781 1.838125 8.13351562 1.59375 7.30078125 C0.96879125 4.8790661 0.39839533 2.47005108 0 0 Z " fill="#AFB1BA" transform="translate(168,297)"/>
<path d="M0 0 C2.61500768 2.36595933 4.38999603 4.86049226 6 8 C5.67 8.66 5.34 9.32 5 10 C4.39671875 9.98839844 3.7934375 9.97679687 3.171875 9.96484375 C2.37265625 9.95582031 1.5734375 9.94679688 0.75 9.9375 C-0.03890625 9.92589844 -0.8278125 9.91429687 -1.640625 9.90234375 C-3.95959536 9.9115221 -3.95959536 9.9115221 -5.96875 10.53125 C-8.53198498 11.12276577 -10.64441393 10.87105624 -13.25 10.5625 C-14.58804688 10.40974609 -14.58804688 10.40974609 -15.953125 10.25390625 C-16.62859375 10.17011719 -17.3040625 10.08632813 -18 10 C-17 8 -17 8 -15.265625 7.37890625 C-12.71855716 6.95293111 -10.33143831 6.90353371 -7.75 6.9375 C-6.85796875 6.94652344 -5.9659375 6.95554687 -5.046875 6.96484375 C-4.37140625 6.97644531 -3.6959375 6.98804688 -3 7 C-3 6.34 -3 5.68 -3 5 C-2.01 5 -1.02 5 0 5 C0 3.35 0 1.7 0 0 Z " fill="#5D7F9B" transform="translate(150,304)"/>
<path d="M0 0 C0.33 0.66 0.66 1.32 1 2 C0.29296875 4.03125 0.29296875 4.03125 -0.8125 6.5 C-5.41450528 17.68763352 -5.53403372 29.05654861 -6 41 C-8.47733058 37.28400413 -8.34396303 34.36729928 -8.3125 30.0625 C-8.30903564 29.30267822 -8.30557129 28.54285645 -8.30200195 27.76000977 C-8.1766737 21.19516349 -7.06241619 15.2434963 -5 9 C-4.60554687 7.77410156 -4.60554687 7.77410156 -4.203125 6.5234375 C-2.35122863 1.17561432 -2.35122863 1.17561432 0 0 Z " fill="#F5F4EE" transform="translate(176,142)"/>
<path d="M0 0 C6.52307692 -0.36923077 6.52307692 -0.36923077 8.9375 1.5 C9.288125 1.995 9.63875 2.49 10 3 C7.69 3.33 5.38 3.66 3 4 C3 7.63 3 11.26 3 15 C1.35 15.33 -0.3 15.66 -2 16 C-2.08153933 14.41753293 -2.13943557 12.83383727 -2.1875 11.25 C-2.22230469 10.36828125 -2.25710937 9.4865625 -2.29296875 8.578125 C-1.94923684 5.55328417 -0.99772541 4.24416398 1 2 C0.67 1.34 0.34 0.68 0 0 Z " fill="#8A878A" transform="translate(153,241)"/>
<path d="M0 0 C1.24241508 4.3149962 0.95933112 8.18633296 0.6875 12.625 C0.65205078 13.40101563 0.61660156 14.17703125 0.58007812 14.9765625 C0.24394441 20.75605559 0.24394441 20.75605559 -2 23 C-4.125 22.625 -4.125 22.625 -6 22 C-5.57397439 19.45593219 -5.13462329 16.91537215 -4.6875 14.375 C-4.56955078 13.66214844 -4.45160156 12.94929687 -4.33007812 12.21484375 C-3.52100397 7.69232667 -2.28123957 4.05127699 0 0 Z " fill="#4C5966" transform="translate(191,156)"/>
<path d="M0 0 C0.33 0.66 0.66 1.32 1 2 C0.3503125 3.175625 0.3503125 3.175625 -0.3125 4.375 C-2.3260961 8.70050273 -2.85852655 12.68814615 -3.47265625 17.390625 C-4 20 -4 20 -6 22 C-8.625 22.125 -8.625 22.125 -11 22 C-9.56176509 16.36691325 -7.45855991 11.26322777 -5 6 C-4.34 6 -3.68 6 -3 6 C-2.690625 5.195625 -2.38125 4.39125 -2.0625 3.5625 C-1 1 -1 1 0 0 Z " fill="#556673" transform="translate(162,86)"/>
<path d="M0 0 C1.23848284 3.7897575 0.45798925 5.5400206 -1.23046875 9.1328125 C-2.93794074 13.27581561 -3 17.57898339 -3 22 C-2.34 22 -1.68 22 -1 22 C-0.67 22.99 -0.34 23.98 0 25 C-2.31 24.67 -4.62 24.34 -7 24 C-7 15.0124387 -4.95184366 7.48446598 0 0 Z " fill="#9C9590" transform="translate(164,85)"/>
<path d="M0 0 C13.77839437 -1.03194632 13.77839437 -1.03194632 18.25 2.5625 C21.25487854 5.73389574 22.23489233 8.74940185 23 13 C20.69 12.01 18.38 11.02 16 10 C16 9.01 16 8.02 16 7 C15.34 7 14.68 7 14 7 C12.9790625 5.7934375 12.9790625 5.7934375 11.9375 4.5625 C8.07143945 1.1899791 4.98452057 1.11945474 0 1 C0 0.67 0 0.34 0 0 Z " fill="#7492A6" transform="translate(144,284)"/>
<path d="M0 0 C0.33 0 0.66 0 1 0 C2.16331233 4.68162278 2.25444235 9.26693801 2.3125 14.0625 C2.35600586 15.26616211 2.35600586 15.26616211 2.40039062 16.49414062 C2.40876953 17.27080078 2.41714844 18.04746094 2.42578125 18.84765625 C2.44036377 19.54898682 2.45494629 20.25031738 2.4699707 20.97290039 C1.80645662 23.83480036 0.15881302 25.09598194 -2 27 C-2.05797565 23.06256167 -2.09358789 19.12523281 -2.125 15.1875 C-2.14175781 14.06794922 -2.15851563 12.94839844 -2.17578125 11.79492188 C-2.18222656 10.72177734 -2.18867188 9.64863281 -2.1953125 8.54296875 C-2.20578613 7.55321045 -2.21625977 6.56345215 -2.22705078 5.54370117 C-2 3 -2 3 0 0 Z " fill="#9C9394" transform="translate(241,85)"/>
<path d="M0 0 C1.12329712 0.07069702 1.12329712 0.07069702 2.26928711 0.14282227 C3.07817383 0.19116211 3.88706055 0.23950195 4.72045898 0.28930664 C5.99566406 0.37341797 5.99566406 0.37341797 7.29663086 0.45922852 C8.57763672 0.53753906 8.57763672 0.53753906 9.88452148 0.61743164 C12.00135081 0.74751612 14.1177833 0.88402822 16.23413086 1.02172852 C12.65321822 4.60264115 8.18410392 4.97493181 3.26928711 5.21704102 C1.95831055 5.19383789 0.64733398 5.17063477 -0.70336914 5.14672852 C-1.3872168 5.13770508 -2.07106445 5.12868164 -2.77563477 5.11938477 C-4.43920201 5.09611809 -6.10258545 5.06026018 -7.76586914 5.02172852 C-8.09586914 4.36172852 -8.42586914 3.70172852 -8.76586914 3.02172852 C-7.31180664 2.55766602 -7.31180664 2.55766602 -5.82836914 2.08422852 C-3.50108776 1.27680436 -2.26452797 0.02786437 0 0 Z " fill="#446582" transform="translate(113.765869140625,315.978271484375)"/>
<path d="M0 0 C1.03290161 0.23771118 1.03290161 0.23771118 2.08666992 0.48022461 C5.29211563 1.05211717 8.35894123 1.21238625 11.61328125 1.31640625 C12.86044922 1.35830078 14.10761719 1.40019531 15.39257812 1.44335938 C16.68615234 1.48267578 17.97972656 1.52199219 19.3125 1.5625 C21.28186523 1.62727539 21.28186523 1.62727539 23.29101562 1.69335938 C26.52724288 1.79927227 29.76354458 1.90134885 33 2 C33 2.33 33 2.66 33 3 C26.04785719 4.31191997 19.11555097 4.11058058 12.0625 4.0625 C10.80630859 4.05798828 9.55011719 4.05347656 8.25585938 4.04882812 C5.17052337 4.03709681 2.08528684 4.020681 -1 4 C-0.67 2.68 -0.34 1.36 0 0 Z " fill="#849FB4" transform="translate(102,283)"/>
<path d="M0 0 C9.55650317 -0.20166126 18.63914824 -0.26439611 28 2 C28 2.33 28 2.66 28 3 C18.76 3 9.52 3 0 3 C0 2.01 0 1.02 0 0 Z " fill="#E0DDD6" transform="translate(139,109)"/>
<path d="M0 0 C1.2065625 0.0309375 1.2065625 0.0309375 2.4375 0.0625 C2.7675 1.0525 3.0975 2.0425 3.4375 3.0625 C5.99151848 4.31200052 5.99151848 4.31200052 9 5.25 C10.01191406 5.59417969 11.02382812 5.93835938 12.06640625 6.29296875 C12.84886719 6.54691406 13.63132813 6.80085937 14.4375 7.0625 C14.4375 7.3925 14.4375 7.7225 14.4375 8.0625 C12.39525363 7.94735851 10.35369841 7.81992674 8.3125 7.6875 C7.17554688 7.61789063 6.03859375 7.54828125 4.8671875 7.4765625 C1.48356384 7.06806124 -1.37862441 6.25282431 -4.5625 5.0625 C-3.43829114 0.08386076 -3.43829114 0.08386076 0 0 Z " fill="#435466" transform="translate(153.5625,219.9375)"/>
<path d="M0 0 C4.1556484 1.33267345 6.14019002 2.89910263 8.75 6.375 C9.34296875 7.14585937 9.9359375 7.91671875 10.546875 8.7109375 C12 11 12 11 13 15 C10.03 14.01 7.06 13.02 4 12 C4.66 11.34 5.32 10.68 6 10 C5.38125 9.5875 4.7625 9.175 4.125 8.75 C1.89371211 6.91246879 1.00501017 5.68002711 0 3 C0 2.01 0 1.02 0 0 Z " fill="#6C89A0" transform="translate(76,267)"/>
<path d="M0 0 C1.34916504 -0.00580078 1.34916504 -0.00580078 2.72558594 -0.01171875 C10.30188435 0.11886018 15.98323984 1.6576365 22.625 5.4375 C20.625 6.4375 20.625 6.4375 17.89208984 5.53955078 C16.27488037 4.99403564 16.27488037 4.99403564 14.625 4.4375 C12.54182127 4.15865975 10.44829049 3.95000528 8.3515625 3.8046875 C6.62099609 3.67900391 6.62099609 3.67900391 4.85546875 3.55078125 C3.66566406 3.47214844 2.47585937 3.39351562 1.25 3.3125 C0.03699219 3.22613281 -1.17601562 3.13976563 -2.42578125 3.05078125 C-5.40844009 2.83941173 -8.39141038 2.63521924 -11.375 2.4375 C-8.16883688 -0.76866312 -4.36693312 0.01266236 0 0 Z " fill="#B2B1B3" transform="translate(197.375,52.5625)"/>
<path d="M0 0 C3.32033534 0.61592575 4.08317334 1.07930481 6.6875 3.5625 C9.28090103 7.42449967 9.67375801 11.46227051 10 16 C10.05373779 16.67619385 10.10747559 17.3523877 10.1628418 18.04907227 C10.41372061 23.84458372 9.16756892 28.51130975 5.3125 32.9375 C4.6628125 33.4634375 4.6628125 33.4634375 4 34 C3.34 33.67 2.68 33.34 2 33 C2.639375 32.0925 3.27875 31.185 3.9375 30.25 C7.90154136 24.00363179 7.66774493 17.24593481 7 10 C5.38492402 6.44678747 5.38492402 6.44678747 3 4 C2.4225 3.21625 1.845 2.4325 1.25 1.625 C0.8375 1.08875 0.425 0.5525 0 0 Z " fill="#7E91A1" transform="translate(203,81)"/>
<path d="M0 0 C0.66 0 1.32 0 2 0 C1.979375 1.051875 1.95875 2.10375 1.9375 3.1875 C2.59187488 7.0180566 2.59187488 7.0180566 5.0703125 8.578125 C7.34669773 9.81978967 9.62560462 10.95910344 12 12 C12 12.33 12 12.66 12 13 C7.545 13.495 7.545 13.495 3 14 C2.67 15.32 2.34 16.64 2 18 C1.34 18 0.68 18 0 18 C-0.33 18.99 -0.66 19.98 -1 21 C-1.75 19.4375 -1.75 19.4375 -2 17 C-1.319375 15.96875 -0.63875 14.9375 0.0625 13.875 C2.21706542 10.4997593 2.0575858 8.44660315 1.25 4.5625 C0.85845184 3.0350069 0.45004298 1.51129298 0 0 Z " fill="#778388" transform="translate(176,235)"/>
<path d="M0 0 C3.3125 0.5625 3.3125 0.5625 7 2 C9.93009605 6.95085195 10.91795465 12.38609411 12 18 C7.125 13.375 7.125 13.375 6 10 C5.34 9.67 4.68 9.34 4 9 C3.375 5.9375 3.375 5.9375 3 3 C2.34 3 1.68 3 1 3 C0.67 2.01 0.34 1.02 0 0 Z " fill="#60839F" transform="translate(161,295)"/>
<path d="M0 0 C0.66 0.33 1.32 0.66 2 1 C2.4140625 2.890625 2.4140625 2.890625 2.625 5.25 C2.69976562 6.01828125 2.77453125 6.7865625 2.8515625 7.578125 C2.90054688 8.37734375 2.94953125 9.1765625 3 10 C3.05929688 10.81339844 3.11859375 11.62679687 3.1796875 12.46484375 C2.95885228 15.58054067 1.96467879 17.56622727 0.5 20.3125 C0.0359375 21.19550781 -0.428125 22.07851562 -0.90625 22.98828125 C-1.44765625 23.98408203 -1.44765625 23.98408203 -2 25 C-2.66 24.67 -3.32 24.34 -4 24 C-3.27876953 22.54400391 -3.27876953 22.54400391 -2.54296875 21.05859375 C-0.69571008 16.74832353 -0.45173711 12.70506303 -0.3125 8.0625 C-0.27833984 7.28326172 -0.24417969 6.50402344 -0.20898438 5.70117188 C-0.1273929 3.80125607 -0.06200115 1.90065597 0 0 Z " fill="#757275" transform="translate(230,88)"/>
<path d="M0 0 C0.33 0 0.66 0 1 0 C1.18175781 1.01320312 1.36351563 2.02640625 1.55078125 3.0703125 C1.80421582 4.42196353 2.05814865 5.77352119 2.3125 7.125 C2.43044922 7.79015625 2.54839844 8.4553125 2.66992188 9.140625 C3.50979337 13.53379897 4.91494967 17.06351843 7 21 C7 21.66 7 22.32 7 23 C7.66 23 8.32 23 9 23 C9.66 24.65 10.32 26.3 11 28 C8.75 27.5625 8.75 27.5625 6 26 C4.28842723 23.1396428 3.15500827 20.11905459 2 17 C1.5875 16.05125 1.175 15.1025 0.75 14.125 C-0.37603172 9.43320117 -0.15377697 4.80125867 0 0 Z " fill="#8C8C94" transform="translate(70,241)"/>
<path d="M0 0 C2 3 2 3 1.625 6.1875 C1.41875 7.115625 1.2125 8.04375 1 9 C3.97 9.495 3.97 9.495 7 10 C7 10.66 7 11.32 7 12 C0.9453125 12.1953125 0.9453125 12.1953125 -1 12 C-3 10 -3 10 -3.046875 8.125 C-2.94890625 7.42375 -2.8509375 6.7225 -2.75 6 C-2.66234375 5.29875 -2.5746875 4.5975 -2.484375 3.875 C-2 2 -2 2 0 0 Z " fill="#3F5166" transform="translate(153,229)"/>
<path d="M0 0 C0.66 0 1.32 0 2 0 C1.52013969 5.56890517 0.70084819 10.67067568 -1 16 C-1.99 15.67 -2.98 15.34 -4 15 C-3.63495936 9.33557626 -2.9445679 4.99296295 0 0 Z " fill="#627889" transform="translate(186,163)"/>
<path d="M0 0 C1.125 1.5625 1.125 1.5625 2 4 C1.1875 7.4375 1.1875 7.4375 0 11 C-0.35371498 12.66246041 -0.69595322 14.32774271 -1 16 C-0.21302734 15.74283203 -0.21302734 15.74283203 0.58984375 15.48046875 C3.68100268 14.86424096 6.42212004 15.07313088 9.5625 15.3125 C10.69816406 15.39113281 11.83382812 15.46976563 13.00390625 15.55078125 C16 16 16 16 19 18 C12.07 17.67 5.14 17.34 -2 17 C-2.28571429 5.28571429 -2.28571429 5.28571429 0 0 Z " fill="#A3ABA9" transform="translate(141,92)"/>
<path d="M0 0 C4.6875 3.515625 4.6875 3.515625 6 5 C6 6.32 6 7.64 6 9 C4.02 9.33 2.04 9.66 0 10 C-1.49106457 7.01787087 -1.11941467 4.28390342 -1 1 C-0.67 0.67 -0.34 0.34 0 0 Z " fill="#3B434F" transform="translate(222,247)"/>
<path d="M0 0 C0.90492188 0.38285156 1.80984375 0.76570313 2.7421875 1.16015625 C4.10730469 1.73056641 4.10730469 1.73056641 5.5 2.3125 C6.19867188 2.61285156 6.89734375 2.91320312 7.6171875 3.22265625 C7.6171875 4.21265625 7.6171875 5.20265625 7.6171875 6.22265625 C4.3171875 5.89265625 1.0171875 5.56265625 -2.3828125 5.22265625 C-3.0428125 3.57265625 -3.7028125 1.92265625 -4.3828125 0.22265625 C-2.3828125 -0.77734375 -2.3828125 -0.77734375 0 0 Z " fill="#2A3042" transform="translate(172.3828125,326.77734375)"/>
<path d="M0 0 C1.32 1.32 2.64 2.64 4 4 C3.01 5.485 3.01 5.485 2 7 C1.92094936 9.33199388 1.91201231 11.66832622 2 14 C0.68 13.67 -0.64 13.34 -2 13 C-1.85769192 11.58297487 -1.71099254 10.1663904 -1.5625 8.75 C-1.48128906 7.96109375 -1.40007812 7.1721875 -1.31640625 6.359375 C-1.02365007 4.17635361 -0.57935581 2.1226818 0 0 Z " fill="#889DAB" transform="translate(172,243)"/>
<path d="M0 0 C0.66 0.66 1.32 1.32 2 2 C4.549496 2.62448329 7.04720094 3.15890349 9.625 3.625 C10.68460938 3.82609375 10.68460938 3.82609375 11.765625 4.03125 C13.50911918 4.36110025 15.25440389 4.68146056 17 5 C17 5.33 17 5.66 17 6 C12.545 6.495 12.545 6.495 8 7 C7.67 8.32 7.34 9.64 7 11 C4 7.25 4 7.25 4 5 C2.68 5 1.36 5 0 5 C0 3.35 0 1.7 0 0 Z " fill="#6E7C89" transform="translate(148,223)"/>
<path d="M0 0 C1.32 0.33 2.64 0.66 4 1 C4.66 3.97 5.32 6.94 6 10 C3.69 9.67 1.38 9.34 -1 9 C-1 5.88772805 -0.54372951 3.05847848 0 0 Z " fill="#98857A" transform="translate(191,171)"/>
<path d="M0 0 C0.99 0.66 1.98 1.32 3 2 C2.64996937 4.83094947 2.23218382 5.80598338 0.00390625 7.66796875 C-1.20458984 8.42013672 -1.20458984 8.42013672 -2.4375 9.1875 C-3.64212891 9.95126953 -3.64212891 9.95126953 -4.87109375 10.73046875 C-7 12 -7 12 -9 13 C-9 12.01 -9 11.02 -9 10 C-7.34211215 8.65576661 -5.67423683 7.32381517 -4 6 C-2.26509754 3.41556677 -2.26509754 3.41556677 -1 1 C-0.67 0.67 -0.34 0.34 0 0 Z " fill="#5A7D97" transform="translate(86,312)"/>
<path d="M0 0 C0.66 0 1.32 0 2 0 C2.33 0.99 2.66 1.98 3 3 C3.66 3.33 4.32 3.66 5 4 C5.4140625 6.28515625 5.4140625 6.28515625 5.625 9.0625 C5.69976562 9.98160156 5.77453125 10.90070313 5.8515625 11.84765625 C5.90054688 12.55792969 5.94953125 13.26820313 6 14 C4.68 13.67 3.36 13.34 2 13 C1.34 8.71 0.68 4.42 0 0 Z " fill="#69767F" transform="translate(179,226)"/>
<path d="M0 0 C1.051875 -0.01417969 2.10375 -0.02835937 3.1875 -0.04296875 C6 0.1875 6 0.1875 9 2.1875 C8.11957031 2.21328125 7.23914063 2.2390625 6.33203125 2.265625 C4.58986328 2.35070312 4.58986328 2.35070312 2.8125 2.4375 C1.08966797 2.50710937 1.08966797 2.50710937 -0.66796875 2.578125 C-4.48260114 3.27576 -6.20961189 4.56001591 -9 7.1875 C-9.66 6.8575 -10.32 6.5275 -11 6.1875 C-10.1875 3.75 -10.1875 3.75 -9 1.1875 C-5.79226388 0.11825463 -3.37015182 0.02065044 0 0 Z " fill="#C6C5C0" transform="translate(184,75.8125)"/>
<path d="M0 0 C0.33 0 0.66 0 1 0 C1.33 9.57 1.66 19.14 2 29 C-1.22282859 24.70289521 -1.35536595 24.15015695 -1.07421875 19.140625 C-0.99204102 17.46806641 -0.99204102 17.46806641 -0.90820312 15.76171875 C-0.83537109 14.60285156 -0.76253906 13.44398438 -0.6875 12.25 C-0.62626953 11.07566406 -0.56503906 9.90132812 -0.50195312 8.69140625 C-0.34879544 5.79319164 -0.18095765 2.89658998 0 0 Z " fill="#797E8C" transform="translate(68,219)"/>
<path d="M0 0 C4.69461209 4.22515088 7.39818232 8.68091431 8 15 C6.10546875 14.765625 6.10546875 14.765625 4 14 C2.98828125 12.109375 2.98828125 12.109375 2.3125 9.75 C2.0753125 8.94175781 1.838125 8.13351562 1.59375 7.30078125 C0.96879125 4.8790661 0.39839533 2.47005108 0 0 Z " fill="#9BA4B4" transform="translate(168,297)"/>
<path d="M0 0 C1.97929118 2.96893676 3.02741785 5.51620619 4.1875 8.875 C4.55230469 9.90367187 4.91710937 10.93234375 5.29296875 11.9921875 C6.02892175 15.12303729 5.88524323 16.94393738 5 20 C4.34 20 3.68 20 3 20 C2.49395076 17.60530271 1.99500483 15.20948283 1.5 12.8125 C1.28537109 11.80219727 1.28537109 11.80219727 1.06640625 10.77148438 C0.31930158 7.12490207 -0.17352282 3.72351043 0 0 Z " fill="#86878B" transform="translate(192,234)"/>
<path d="M0 0 C7 8.44827586 7 8.44827586 7 14 C3.83884224 12.63016497 3.0072908 12.0109362 1 9 C0.5859375 6.73828125 0.5859375 6.73828125 0.375 4.3125 C0.30023438 3.50425781 0.22546875 2.69601562 0.1484375 1.86328125 C0.09945312 1.24839844 0.05046875 0.63351562 0 0 Z " fill="#4B6A85" transform="translate(173,313)"/>
<path d="M0 0 C8.94390988 -0.78150669 8.94390988 -0.78150669 13.125 2.3125 C15 5 15 5 15 8 C14.2884375 7.3503125 14.2884375 7.3503125 13.5625 6.6875 C10.50559619 4.67441701 7.51604574 3.77299019 4.0234375 2.74609375 C2 2 2 2 0 0 Z " fill="#9CA4AB" transform="translate(204,250)"/>
<path d="M0 0 C1.32 0.66 2.64 1.32 4 2 C4 3.32 4 4.64 4 6 C3 7 3 7 0.5625 7.25 C-0.283125 7.1675 -1.12875 7.085 -2 7 C-2.66 6.01 -3.32 5.02 -4 4 C-2.68 2.68 -1.36 1.36 0 0 Z " fill="#5B6F83" transform="translate(214,236)"/>
<path d="M0 0 C2.52480693 2.52480693 2.55738633 4.13823034 3.125 7.625 C3.29257813 8.62789062 3.46015625 9.63078125 3.6328125 10.6640625 C3.75398437 11.43492187 3.87515625 12.20578125 4 13 C4.99 13.33 5.98 13.66 7 14 C7.33 13.01 7.66 12.02 8 11 C8 11.66 8 12.32 8 13 C8.66 13 9.32 13 10 13 C10 14.98 10 16.96 10 19 C9.67 18.01 9.34 17.02 9 16 C6.68970915 15.25740651 4.354248 14.588562 2 14 C0.12175109 12.12175109 0.60897603 8.96064724 0.4375 6.4375 C0.35371094 5.23996094 0.26992187 4.04242188 0.18359375 2.80859375 C0.12300781 1.88175781 0.06242188 0.95492187 0 0 Z " fill="#4B5D6D" transform="translate(178,226)"/>
<path d="M0 0 C0.66 0.33 1.32 0.66 2 1 C-2.75685516 6.72046248 -6.56363344 9.17373705 -14 10 C-14.33 9.34 -14.66 8.68 -15 8 C-14.01 7.608125 -13.02 7.21625 -12 6.8125 C-8.27246279 5.24101283 -5.03196783 3.16920394 -1.69921875 0.890625 C-1.13847656 0.59671875 -0.57773438 0.3028125 0 0 Z " fill="#D1C6BA" transform="translate(234,124)"/>
<path d="M0 0 C1.46356084 2.92712168 0.28648463 5.02192144 -0.453125 8.0703125 C-1.55445358 13.97028706 -1.70033354 20.01455683 -2 26 C-2.33 26 -2.66 26 -3 26 C-3.08720919 22.41682042 -3.14046112 18.83391433 -3.1875 15.25 C-3.21263672 14.23421875 -3.23777344 13.2184375 -3.26367188 12.171875 C-3.27333984 11.1921875 -3.28300781 10.2125 -3.29296875 9.203125 C-3.3086792 8.30239258 -3.32438965 7.40166016 -3.34057617 6.47363281 C-2.93761772 3.54691237 -1.9344597 2.18658651 0 0 Z " fill="#D1C1B3" transform="translate(174,87)"/>
<path d="M0 0 C-2.9550405 0.86585625 -5.91445682 1.71566785 -8.875 2.5625 C-9.71675781 2.80935547 -10.55851563 3.05621094 -11.42578125 3.31054688 C-12.23144531 3.53935547 -13.03710938 3.76816406 -13.8671875 4.00390625 C-14.98262939 4.32597046 -14.98262939 4.32597046 -16.12060547 4.65454102 C-18 5 -18 5 -20 4 C-18.68 2.68 -17.36 1.36 -16 0 C-15.67 0.33 -15.34 0.66 -15 1 C-11.93021733 0.26233581 -8.91454495 -0.62360803 -5.8828125 -1.50390625 C-3 -2 -3 -2 0 0 Z " fill="#95BACD" transform="translate(213,328)"/>
<path d="M0 0 C0.33 0.66 0.66 1.32 1 2 C3.31 2 5.62 2 8 2 C8.33 2.99 8.66 3.98 9 5 C3.25 9 3.25 9 1 9 C1 8.01 1 7.02 1 6 C1.99 6 2.98 6 4 6 C4 5.34 4 4.68 4 4 C2.35 4 0.7 4 -1 4 C-0.67 2.68 -0.34 1.36 0 0 Z " fill="#657988" transform="translate(203,220)"/>
<path d="M0 0 C2.31 0.33 4.62 0.66 7 1 C7.33 1.99 7.66 2.98 8 4 C10.97 4.495 10.97 4.495 14 5 C13.67 5.99 13.34 6.98 13 8 C11.01492176 7.43711205 9.03697437 6.84902373 7.0625 6.25 C5.96035156 5.92515625 4.85820312 5.6003125 3.72265625 5.265625 C1 4 1 4 0.12109375 1.859375 C0.06115234 0.93898438 0.06115234 0.93898438 0 0 Z " fill="#758C9E" transform="translate(189,73)"/>
<path d="M0 0 C-0.29003906 0.56460938 -0.58007812 1.12921875 -0.87890625 1.7109375 C-2.36299738 4.74117235 -3.62184865 7.85567971 -4.90234375 10.9765625 C-6 13 -6 13 -9 15 C-8.24060851 9.89960937 -6.74946287 0 0 0 Z " fill="#B3B0A7" transform="translate(56,35)"/>
<path d="M0 0 C3 3.75 3 3.75 3 6 C3.99 6.33 4.98 6.66 6 7 C5.67 7.66 5.34 8.32 5 9 C4.01 8.34 3.02 7.68 2 7 C2 6.34 2 5.68 2 5 C1.01 5.495 1.01 5.495 0 6 C-2.21138855 5.91188555 -4.42042185 5.7570216 -6.625 5.5625 C-7.81351563 5.46066406 -9.00203125 5.35882813 -10.2265625 5.25390625 C-11.14179688 5.17011719 -12.05703125 5.08632813 -13 5 C-13 4.67 -13 4.34 -13 4 C-7.06 3.505 -7.06 3.505 -1 3 C-0.67 2.01 -0.34 1.02 0 0 Z " fill="#3D5672" transform="translate(157,313)"/>
<path d="M0 0 C0.66 1.32 1.32 2.64 2 4 C1.60167969 4.43570312 1.20335937 4.87140625 0.79296875 5.3203125 C-2.48936831 9.00994686 -4.99399746 12.43077198 -7 17 C-7.66 17 -8.32 17 -9 17 C-7.68925635 12.53817564 -5.92933989 9.00381243 -3.375 5.125 C-2.74335938 4.15820312 -2.11171875 3.19140625 -1.4609375 2.1953125 C-0.73777344 1.10863281 -0.73777344 1.10863281 0 0 Z " fill="#759CB1" transform="translate(208,308)"/>
<path d="M0 0 C0 3.69418201 -1.28179295 5.77836178 -3 9 C-3.66 9 -4.32 9 -5 9 C-5.12375 9.61875 -5.2475 10.2375 -5.375 10.875 C-6 13 -6 13 -8 15 C-8.20140476 11.37471432 -7.85776765 9.13498292 -6 6 C-5.34 6 -4.68 6 -4 6 C-3.8453125 5.071875 -3.8453125 5.071875 -3.6875 4.125 C-3 2 -3 2 0 0 Z " fill="#617587" transform="translate(196,147)"/>
<path d="M0 0 C0.99 0.495 0.99 0.495 2 1 C3.84281069 8.00268062 3.60034555 15.97626118 2 23 C1.67 23 1.34 23 1 23 C0.83256252 19.54170353 0.66618079 16.08335707 0.5 12.625 C0.45230469 11.64015625 0.40460938 10.6553125 0.35546875 9.640625 C0.31035156 8.69960937 0.26523438 7.75859375 0.21875 6.7890625 C0.17685547 5.91975098 0.13496094 5.05043945 0.09179688 4.15478516 C0.03283606 2.77077412 0 1.38526637 0 0 Z " fill="#373F4E" transform="translate(226,84)"/>
<path d="M0 0 C3.63 0 7.26 0 11 0 C9.02 0.99 9.02 0.99 7 2 C7.33 3.32 7.66 4.64 8 6 C5.36 5.34 2.72 4.68 0 4 C0 2.68 0 1.36 0 0 Z " fill="#4B5663" transform="translate(154,234)"/>
<path d="M0 0 C0.350625 0.433125 0.70125 0.86625 1.0625 1.3125 C3.78485635 3.68358456 6.64758216 4.6716835 10 6 C9.67 6.66 9.34 7.32 9 8 C7.35 7.67 5.7 7.34 4 7 C4 6.34 4 5.68 4 5 C1.69 5 -0.62 5 -3 5 C-1.125 1.125 -1.125 1.125 0 0 Z " fill="#4D6475" transform="translate(207,217)"/>
<path d="M0 0 C1.378044 3.7207188 0.50727907 5.43012852 -1 9 C-1.74833135 11.98328068 -2.38297418 14.98707604 -3 18 C-3.33 18 -3.66 18 -4 18 C-4.20647863 12.21859826 -3.71903016 7.53909717 -2 2 C-1.34 1.34 -0.68 0.68 0 0 Z " fill="#CFBFAE" transform="translate(76,49)"/>
<path d="M0 0 C0.33 0 0.66 0 1 0 C1 3.96 1 7.92 1 12 C0.01 12.33 -0.98 12.66 -2 13 C-2.05416188 11.39620659 -2.09286638 9.79188594 -2.125 8.1875 C-2.14820313 7.29417969 -2.17140625 6.40085938 -2.1953125 5.48046875 C-2 3 -2 3 0 0 Z " fill="#4E5B68" transform="translate(153,244)"/>
<path d="M0 0 C2.475 0.495 2.475 0.495 5 1 C5.33872513 2.41538717 5.67074624 3.83237963 6 5.25 C6.185625 6.03890625 6.37125 6.8278125 6.5625 7.640625 C7 10 7 10 7 14 C6.34 14 5.68 14 5 14 C4.70996094 12.73542969 4.70996094 12.73542969 4.4140625 11.4453125 C4.15367187 10.34960938 3.89328125 9.25390625 3.625 8.125 C3.36976563 7.03445312 3.11453125 5.94390625 2.8515625 4.8203125 C2.21093785 1.89591545 2.21093785 1.89591545 0 0 Z " fill="#5B6670" transform="translate(182,218)"/>
<path d="M0 0 C0.33 0 0.66 0 1 0 C1.63019694 10.15317287 1.63019694 10.15317287 -1 13.6875 C-1.66 14.120625 -2.32 14.55375 -3 15 C-2.22095672 4.44191344 -2.22095672 4.44191344 0 0 Z " fill="#A3958C" transform="translate(242,97)"/>
<path d="M0 0 C1 2 1 2 0.00390625 5.2578125 C-0.46889984 6.5497052 -0.94971969 7.83868638 -1.4375 9.125 C-1.68048828 9.78371094 -1.92347656 10.44242188 -2.17382812 11.12109375 C-2.77578321 12.74991338 -3.38702412 14.37529575 -4 16 C-4.33 16 -4.66 16 -5 16 C-5.34707004 10.21549928 -5.27233705 6.03436469 -2 1 C-1.34 0.67 -0.68 0.34 0 0 Z " fill="#E3DACF" transform="translate(213,145)"/>
<path d="M0 0 C0.64324219 0.15339844 1.28648438 0.30679687 1.94921875 0.46484375 C5.89767537 1.15746674 9.8131887 1.35800881 13.8125 1.5625 C14.99489258 1.62727539 14.99489258 1.62727539 16.20117188 1.69335938 C18.13394215 1.79878321 20.06695026 1.89983094 22 2 C22 2.33 22 2.66 22 3 C14.41 3.33 6.82 3.66 -1 4 C-0.67 2.68 -0.34 1.36 0 0 Z " fill="#97A7B4" transform="translate(102,283)"/>
<path d="M0 0 C0.33 0 0.66 0 1 0 C1.66 2.97 2.32 5.94 3 9 C3.66 9 4.32 9 5 9 C5.33 9.99 5.66 10.98 6 12 C3.69 11.67 1.38 11.34 -1 11 C-1 7.25838897 -0.48661829 3.71046443 0 0 Z " fill="#97877B" transform="translate(158,98)"/>
<path d="M0 0 C0.66 0.33 1.32 0.66 2 1 C0.50260417 2.23697917 -0.99479167 3.47395833 -2.4921875 4.7109375 C-3.71051161 5.75250992 -4.86660097 6.86660097 -6 8 C-7.66666667 9.66666667 -9.33333333 11.33333333 -11 13 C-10.40566226 9.42594199 -9.01400148 7.49886665 -6.625 4.8125 C-6.01914063 4.11769531 -5.41328125 3.42289062 -4.7890625 2.70703125 C-3 1 -3 1 0 0 Z " fill="#6D8293" transform="translate(169,79)"/>
<path d="M0 0 C1.44246094 0.14501953 1.44246094 0.14501953 2.9140625 0.29296875 C5.375 0.8125 5.375 0.8125 7.375 2.8125 C1.765 2.8125 -3.845 2.8125 -9.625 2.8125 C-5.34523996 -0.39732003 -4.92814626 -0.56454506 0 0 Z " fill="#8CB4C7" transform="translate(215.625,324.1875)"/>
<path d="M0 0 C9.96215596 8.18807339 9.96215596 8.18807339 11 14 C10.01 14 9.02 14 8 14 C7.63648437 13.20335937 7.63648437 13.20335937 7.265625 12.390625 C5.28144678 8.20858783 3.43050972 5.18547331 0 2 C0 1.34 0 0.68 0 0 Z " fill="#91A1AF" transform="translate(81,269)"/>
<path d="M0 0 C1.15957207 3.47871621 0.77456651 4.34219645 -0.4375 7.6875 C-0.86869141 8.89986328 -0.86869141 8.89986328 -1.30859375 10.13671875 C-1.53675781 10.75160156 -1.76492187 11.36648437 -2 12 C-2.66 12 -3.32 12 -4 12 C-4.33292585 7.75519536 -4.43885872 5.64457375 -2 2.0625 C-1.34 1.381875 -0.68 0.70125 0 0 Z " fill="#E4D7C9" transform="translate(81,41)"/>
<path d="M0 0 C2.0622048 -0.054348 4.12482816 -0.09294961 6.1875 -0.125 C7.33605469 -0.14820313 8.48460937 -0.17140625 9.66796875 -0.1953125 C12.91740372 -0.00484152 15.08660521 0.60639873 18 2 C18 2.33 18 2.66 18 3 C15.93722893 2.85805236 13.87478969 2.71127784 11.8125 2.5625 C10.66394531 2.48128906 9.51539063 2.40007812 8.33203125 2.31640625 C5.48401829 2.04596188 2.78789518 1.62478253 0 1 C0 0.67 0 0.34 0 0 Z " fill="#51606E" transform="translate(150,225)"/>
<path d="M0 0 C-3.96 1.98 -7.92 3.96 -12 6 C-12 5.01 -12 4.02 -12 3 C-10.75823305 2.29773859 -9.50614401 1.61370891 -8.25 0.9375 C-7.20585937 0.36322266 -7.20585937 0.36322266 -6.140625 -0.22265625 C-4 -1 -4 -1 0 0 Z " fill="#526879" transform="translate(180,58)"/>
<path d="M0 0 C0 0.99 0 1.98 0 3 C-3.3 3 -6.6 3 -10 3 C-10 2.34 -10 1.68 -10 1 C-6.61981469 -0.04005702 -3.5219721 -0.08004482 0 0 Z " fill="#597996" transform="translate(123,313)"/>
<path d="M0 0 C0.99 0.33 1.98 0.66 3 1 C3.33 1.99 3.66 2.98 4 4 C3.01 5.485 3.01 5.485 2 7 C2.66 7.33 3.32 7.66 4 8 C3.01 8 2.02 8 1 8 C-2 3.77777778 -2 3.77777778 -2 1 C-1.34 0.67 -0.68 0.34 0 0 Z " fill="#44607B" transform="translate(152,301)"/>
<path d="M0 0 C3 3.75 3 3.75 3 6 C3.66 6 4.32 6 5 6 C5.66 7.65 6.32 9.3 7 11 C3.78078148 10.06812096 2.34301014 9.62068502 0.6875 6.625 C0 4 0 4 0 0 Z " fill="#959AA4" transform="translate(74,258)"/>
<path d="M0 0 C0.99 0.66 1.98 1.32 3 2 C1.4375 4 1.4375 4 -1 6 C-4.75 6.25 -4.75 6.25 -8 6 C-8.33 5.34 -8.66 4.68 -9 4 C-6.525 4.495 -6.525 4.495 -4 5 C-4 4.34 -4 3.68 -4 3 C-2 1.375 -2 1.375 0 0 Z " fill="#73879A" transform="translate(211,244)"/>
<path d="M0 0 C0 3.31548235 -0.69259402 4.97232299 -2 8 C-2.26425781 8.62003906 -2.52851563 9.24007812 -2.80078125 9.87890625 C-3.52926232 11.58790213 -4.26414932 13.29416432 -5 15 C-6.13089582 11.60731255 -5.86432909 10.77743849 -4.75 7.5 C-4.49734375 6.7265625 -4.2446875 5.953125 -3.984375 5.15625 C-2.95453743 2.90041531 -1.85156336 1.62271845 0 0 Z " fill="#657D8E" transform="translate(156,93)"/>
<path d="M0 0 C0.33 0 0.66 0 1 0 C1.33 2.31 1.66 4.62 2 7 C3.98 7.66 5.96 8.32 8 9 C8 9.33 8 9.66 8 10 C4.625 10.125 4.625 10.125 1 10 C0.34 9.34 -0.32 8.68 -1 8 C-0.96712417 5.27130593 -0.43602229 2.7033382 0 0 Z " fill="#50687C" transform="translate(151,231)"/>
<path d="M0 0 C1.40907283 2.81814566 0.50872691 4.17277204 -0.4375 7.125 C-0.72496094 8.03507812 -1.01242188 8.94515625 -1.30859375 9.8828125 C-1.65083984 10.93082031 -1.65083984 10.93082031 -2 12 C-3.32 12 -4.64 12 -6 12 C-4 8 -2 4 0 0 Z " fill="#758B99" transform="translate(152,96)"/>
<path d="M0 0 C2.31309705 0.11341637 4.62550185 0.24103807 6.9375 0.375 C8.86916016 0.47941406 8.86916016 0.47941406 10.83984375 0.5859375 C12.40412109 0.79089844 12.40412109 0.79089844 14 1 C14.33 1.66 14.66 2.32 15 3 C9.5610835 3.21755666 5.12919186 3.10428384 0 1 C0 0.67 0 0.34 0 0 Z " fill="#35506A" transform="translate(145,329)"/>
<path d="M0 0 C2.76390737 2.40339772 3.04065919 3.16263678 4 7 C-0.455 7.495 -0.455 7.495 -5 8 C-4.34 7.67 -3.68 7.34 -3 7 C-3 6.34 -3 5.68 -3 5 C-2.01 5 -1.02 5 0 5 C0 3.35 0 1.7 0 0 Z " fill="#7797B1" transform="translate(150,304)"/>
<path d="M0 0 C0.66 0.33 1.32 0.66 2 1 C-4.07439825 6.88183807 -4.07439825 6.88183807 -7.9375 7.375 C-8.618125 7.25125 -9.29875 7.1275 -10 7 C-7.97838446 3.96757669 -7.12981578 3.29189454 -4 1.75 C-3.29875 1.39421875 -2.5975 1.0384375 -1.875 0.671875 C-1.25625 0.45015625 -0.6375 0.2284375 0 0 Z " fill="#C3D1D8" transform="translate(288,263)"/>
<path d="M0 0 C2.46301423 2.46301423 2.76766521 4.27360036 3.625 7.625 C3.88539063 8.62789062 4.14578125 9.63078125 4.4140625 10.6640625 C4.60742188 11.43492187 4.80078125 12.20578125 5 13 C4.01 12.67 3.02 12.34 2 12 C0.51117562 7.92532275 -0.26270217 4.33458585 0 0 Z " fill="#898E94" transform="translate(187,220)"/>
<path d="M0 0 C0.66 0.33 1.32 0.66 2 1 C-1.96 4.465 -1.96 4.465 -6 8 C-6.66 7.34 -7.32 6.68 -8 6 C-3.375 1.125 -3.375 1.125 0 0 Z " fill="#CBC6C1" transform="translate(208,138)"/>
<path d="M0 0 C-2 2 -2 2 -4.375 2.375 C-7.60838899 3.14485452 -8.85071239 4.53229941 -11 7 C-11.66 6.67 -12.32 6.34 -13 6 C-11.92456217 5.01216806 -10.83926783 4.03506057 -9.75 3.0625 C-9.14671875 2.51722656 -8.5434375 1.97195312 -7.921875 1.41015625 C-5.15389555 -0.62082054 -3.16547316 -1.58273658 0 0 Z " fill="#AAA49D" transform="translate(227,125)"/>
<path d="M0 0 C0.33 0 0.66 0 1 0 C1 1.98 1 3.96 1 6 C1.66 6 2.32 6 3 6 C2.39816251 8.02045442 1.72693904 10.02111039 1 12 C0.01 12.495 0.01 12.495 -1 13 C-0.67 8.71 -0.34 4.42 0 0 Z " fill="#515D6A" transform="translate(223,108)"/>
<path d="M0 0 C2.40842385 0.39111157 3.71823174 0.7241637 5.484375 2.453125 C9.69273399 8.42795567 9.69273399 8.42795567 9 13 C7.68268841 11.02403261 6.3700619 9.04493255 5.0625 7.0625 C3.43627819 4.64780701 1.77403701 2.30624811 0 0 Z " fill="#75889A" transform="translate(203,81)"/>
<path d="M0 0 C0.66 0.33 1.32 0.66 2 1 C1.06981474 2.46300982 0.13055973 3.92025579 -0.8125 5.375 C-1.33457031 6.18710938 -1.85664063 6.99921875 -2.39453125 7.8359375 C-4 10 -4 10 -7 12 C-6.34 10.35 -5.68 8.7 -5 7 C-4.34 7 -3.68 7 -3 7 C-3.33 6.01 -3.66 5.02 -4 4 C-2.68 2.68 -1.36 1.36 0 0 Z " fill="#728DA0" transform="translate(160,84)"/>
<path d="M0 0 C2.475 0.495 2.475 0.495 5 1 C5 1.99 5 2.98 5 4 C5.61875 4.0825 6.2375 4.165 6.875 4.25 C9 5 9 5 10.25 7.0625 C10.4975 7.701875 10.745 8.34125 11 9 C9 9 9 9 7.5 7.5625 C7.005 7.046875 6.51 6.53125 6 6 C5.34 5.67 4.68 5.34 4 5 C4 4.34 4 3.68 4 3 C2.68 2.67 1.36 2.34 0 2 C0 1.34 0 0.68 0 0 Z " fill="#747B88" transform="translate(208,57)"/>
<path d="M0 0 C6.75 2.625 6.75 2.625 9 6 C4.2482602 5.56802365 2.07999946 4.67230705 -1 1 C-0.67 0.67 -0.34 0.34 0 0 Z " fill="#313E50" transform="translate(169,323)"/>
<path d="M0 0 C0.66 0.99 1.32 1.98 2 3 C-2.455 4.485 -2.455 4.485 -7 6 C-5 2 -5 2 -2.375 0.75 C-1.59125 0.5025 -0.8075 0.255 0 0 Z " fill="#A0978F" transform="translate(227,120)"/>
<path d="M0 0 C0.66 0 1.32 0 2 0 C2 2.97 2 5.94 2 9 C1.01 9.33 0.02 9.66 -1 10 C-0.67 6.7 -0.34 3.4 0 0 Z " fill="#47535B" transform="translate(156,97)"/>
<path d="M0 0 C0.99 0 1.98 0 3 0 C3.66 3.3 4.32 6.6 5 10 C1.32769295 6.92000054 0.43197635 4.7517398 0 0 Z " fill="#505968" transform="translate(222,73)"/>
<path d="M0 0 C0.99 0 1.98 0 3 0 C3 0.66 3 1.32 3 2 C4.1446875 2.1546875 4.1446875 2.1546875 5.3125 2.3125 C8 3 8 3 11 6 C7.37 5.01 3.74 4.02 0 3 C0 2.01 0 1.02 0 0 Z " fill="#577288" transform="translate(194,71)"/>
<path d="M0 0 C1.37478516 0.01740234 1.37478516 0.01740234 2.77734375 0.03515625 C3.69644531 0.04417969 4.61554688 0.05320312 5.5625 0.0625 C6.27277344 0.07410156 6.98304688 0.08570313 7.71484375 0.09765625 C7.71484375 0.75765625 7.71484375 1.41765625 7.71484375 2.09765625 C5.73484375 2.09765625 3.75484375 2.09765625 1.71484375 2.09765625 C1.38484375 2.75765625 1.05484375 3.41765625 0.71484375 4.09765625 C0.71484375 3.43765625 0.71484375 2.77765625 0.71484375 2.09765625 C-0.60515625 1.76765625 -1.92515625 1.43765625 -3.28515625 1.09765625 C-2.28515625 0.09765625 -2.28515625 0.09765625 0 0 Z " fill="#4D6E8B" transform="translate(129.28515625,314.90234375)"/>
<path d="M0 0 C3.86107457 2.57404971 3.94319692 4.61020259 5 9 C3.0625 8.625 3.0625 8.625 1 8 C-0.35439668 5.29120665 -0.06501451 2.99066732 0 0 Z " fill="#96A7B3" transform="translate(162,288)"/>
<path d="M0 0 C0.66 0 1.32 0 2 0 C2.061875 1.0725 2.12375 2.145 2.1875 3.25 C2.66145959 7.13531961 2.66145959 7.13531961 5.5625 9.4375 C6.366875 9.953125 7.17125 10.46875 8 11 C5.625 11.1875 5.625 11.1875 3 11 C0.43383368 7.15075052 0.44902324 4.5650696 0 0 Z " fill="#637F93" transform="translate(176,235)"/>
<path d="M0 0 C0.33 0 0.66 0 1 0 C1.33 2.64 1.66 5.28 2 8 C0.35 8 -1.3 8 -3 8 C-1.125 1.125 -1.125 1.125 0 0 Z " fill="#606E7A" transform="translate(154,100)"/>
<path d="M0 0 C2.90802461 2.21928194 4.95312762 3.92969143 7 7 C6.625 9.1875 6.625 9.1875 6 11 C4.9944239 9.54550599 3.99569565 8.08627557 3 6.625 C2.443125 5.81289062 1.88625 5.00078125 1.3125 4.1640625 C0 2 0 2 0 0 Z " fill="#B7B4B4" transform="translate(232,68)"/>
<path d="M0 0 C2.52588702 2.36292656 3.88820837 3.66462511 5 7 C2.625 6.8125 2.625 6.8125 0 6 C-1.3125 3.4375 -1.3125 3.4375 -2 1 C-1.34 0.67 -0.68 0.34 0 0 Z " fill="#7E95A5" transform="translate(186,328)"/>
<path d="M0 0 C7.71428571 4 7.71428571 4 9 8 C3.5 6.53333333 3.5 6.53333333 1.125 4 C0 2 0 2 0 0 Z " fill="#3F546C" transform="translate(175,324)"/>
<path d="M0 0 C0.66 0.33 1.32 0.66 2 1 C2 4.96 2 8.92 2 13 C1.67 13 1.34 13 1 13 C1 10.69 1 8.38 1 6 C0.34 6 -0.32 6 -1 6 C-0.67 4.02 -0.34 2.04 0 0 Z " fill="#5F758A" transform="translate(177,229)"/>
<path d="M0 0 C0.99 0 1.98 0 3 0 C3 2.31 3 4.62 3 7 C2.01 7 1.02 7 0 7 C0 4.69 0 2.38 0 0 Z " fill="#333C49" transform="translate(165,219)"/>
<path d="M0 0 C0.66 0.33 1.32 0.66 2 1 C1.19152271 2.16945792 0.37810888 3.33550461 -0.4375 4.5 C-0.88996094 5.1496875 -1.34242188 5.799375 -1.80859375 6.46875 C-2.20175781 6.9740625 -2.59492188 7.479375 -3 8 C-3.33 8 -3.66 8 -4 8 C-4.25 5.6875 -4.25 5.6875 -4 3 C-2 1.1875 -2 1.1875 0 0 Z " fill="#B9B6B0" transform="translate(173,78)"/>
<path d="M0 0 C0.66 1.32 1.32 2.64 2 4 C-4.625 4.25 -4.625 4.25 -8 2 C-5.36 1.34 -2.72 0.68 0 0 Z " fill="#6386A0" transform="translate(154,310)"/>
<path d="M0 0 C3.3125 -0.1875 3.3125 -0.1875 7 0 C7.99 0.99 8.98 1.98 10 3 C7.03 3 4.06 3 1 3 C0.67 2.01 0.34 1.02 0 0 Z " fill="#768188" transform="translate(153,241)"/>
<path d="M0 0 C0.66 0.99 1.32 1.98 2 3 C1.67 3.66 1.34 4.32 1 5 C0.9603287 6.66619446 0.95615553 8.33391013 1 10 C0.01 9.67 -0.98 9.34 -2 9 C-1.34 6.03 -0.68 3.06 0 0 Z " fill="#7E96A7" transform="translate(175,235)"/>
<path d="M0 0 C1.485 0.99 1.485 0.99 3 2 C3.1875 4.625 3.1875 4.625 3 7 C2.01 7.33 1.02 7.66 0 8 C0 5.36 0 2.72 0 0 Z " fill="#67656B" transform="translate(168,219)"/>
<path d="M0 0 C0.33 0 0.66 0 1 0 C1.3125 2.1875 1.3125 2.1875 1 5 C-1.5 7.8125 -1.5 7.8125 -4 10 C-2.99806563 6.20696275 -2.18975773 3.28463659 0 0 Z " fill="#616E79" transform="translate(221,118)"/>
<path d="M0 0 C0.66 0.33 1.32 0.66 2 1 C0.02 5.455 0.02 5.455 -2 10 C-3.19156292 5.23374833 -2.3415946 4.12120649 0 0 Z " fill="#F4E9DC" transform="translate(177,89)"/>
<path d="M0 0 C1.485 0.99 1.485 0.99 3 2 C2.67 2.66 2.34 3.32 2 4 C2.28112064 6.00800456 2.61067967 8.01014051 3 10 C2.34 9.67 1.68 9.34 1 9 C1 8.01 1 7.02 1 6 C0.34 6 -0.32 6 -1 6 C-0.67 4.02 -0.34 2.04 0 0 Z " fill="#405160" transform="translate(180,220)"/>
<path d="M0 0 C1.98 0 3.96 0 6 0 C6.33 1.32 6.66 2.64 7 4 C4.69 3.34 2.38 2.68 0 2 C0 1.34 0 0.68 0 0 Z " fill="#374761" transform="translate(156,221)"/>
<path d="M0 0 C1.125 1.625 1.125 1.625 2 4 C1.125 7.25 1.125 7.25 0 10 C-0.66 10 -1.32 10 -2 10 C-1.54177532 6.53058454 -1.10868317 3.32604951 0 0 Z " fill="#A0B7C0" transform="translate(141,92)"/>
<path d="M0 0 C3.875 1.75 3.875 1.75 5 4 C3.02 4 1.04 4 -1 4 C-1 1 -1 1 0 0 Z " fill="#42515E" transform="translate(214,236)"/>
<path d="M0 0 C0.66 0 1.32 0 2 0 C1.00233891 2.49415272 0.31383315 3.78740335 -1.9375 5.3125 C-4 6 -4 6 -7 5 C-2.25 2 -2.25 2 0 2 C0 1.34 0 0.68 0 0 Z " fill="#8394A5" transform="translate(202,139)"/>
<path d="M0 0 C0.99 0.33 1.98 0.66 3 1 C4.1875 4.5625 4.1875 4.5625 5 8 C4.01 8 3.02 8 2 8 C2 6.35 2 4.7 2 3 C1.34 3 0.68 3 0 3 C0 2.01 0 1.02 0 0 Z " fill="#7791AA" transform="translate(165,296)"/>
<path d="M0 0 C1.5 1.1875 1.5 1.1875 3 3 C3.1875 5.6875 3.1875 5.6875 3 8 C2.34 8 1.68 8 1 8 C0.67 5.36 0.34 2.72 0 0 Z " fill="#DCDADD" transform="translate(182,231)"/>
</svg>
